<svg xmlns="http://www.w3.org/2000/svg" xmlns:xlink="http://www.w3.org/1999/xlink" contentStyleType="text/css" height="2010px" preserveAspectRatio="none" style="width:1155px;height:2010px;background:#FAFAFA;" version="1.1" viewBox="0 0 1155 2010" width="1155px" zoomAndPan="magnify"><defs/><g><rect fill="#FAFAFA" height="2010" style="stroke:none;stroke-width:1.0;" width="1155" x="0" y="0"/><!--cluster ?  Guia Tur?stico Digital--><g id="cluster_&#127757;  Guia Tur&#237;stico Digital"><rect fill="#F0F7FF" height="1438" rx="2.5" ry="2.5" style="stroke:#2C6FAC;stroke-width:2.0;" width="684" x="189" y="467.55"/><text fill="#1A3A5C" font-family="sans-serif" font-size="14" font-weight="bold" lengthAdjust="spacing" textLength="176.3398" x="442.8301" y="482.5451">&#127757;  Guia Tur&#237;stico Digital</text></g><!--cluster ? Busca e Exibi??o--><g id="cluster_&#128269; Busca e Exibi&#231;&#227;o"><path d="M222,510.55 L359.4111,510.55 A3.75,3.75 0 0 1 361.9111,513.05 L368.9111,532.8469 L846.5,532.8469 A2.5,2.5 0 0 1 849,535.3469 L849,868.05 A2.5,2.5 0 0 1 846.5,870.55 L222,870.55 A2.5,2.5 0 0 1 219.5,868.05 L219.5,513.05 A2.5,2.5 0 0 1 222,510.55 " fill="none" style="stroke:#000000;stroke-width:1.5;"/><line style="stroke:#000000;stroke-width:1.5;" x1="219.5" x2="368.9111" y1="532.8469" y2="532.8469"/><text fill="#000000" font-family="sans-serif" font-size="14" font-weight="bold" lengthAdjust="spacing" textLength="136.4111" x="223.5" y="525.5451">&#128269; Busca e Exibi&#231;&#227;o</text></g><!--cluster ?? Roteiriza??o e Navega??o--><g id="cluster_&#128506;&#65039; Roteiriza&#231;&#227;o e Navega&#231;&#227;o"><path d="M229,894.55 L438.7832,894.55 A3.75,3.75 0 0 1 441.2832,897.05 L448.2832,916.8469 L821,916.8469 A2.5,2.5 0 0 1 823.5,919.3469 L823.5,1162.05 A2.5,2.5 0 0 1 821,1164.55 L229,1164.55 A2.5,2.5 0 0 1 226.5,1162.05 L226.5,897.05 A2.5,2.5 0 0 1 229,894.55 " fill="none" style="stroke:#000000;stroke-width:1.5;"/><line style="stroke:#000000;stroke-width:1.5;" x1="226.5" x2="448.2832" y1="916.8469" y2="916.8469"/><text fill="#000000" font-family="sans-serif" font-size="14" font-weight="bold" lengthAdjust="spacing" textLength="208.7832" x="230.5" y="909.5451">&#128506;&#65039; Roteiriza&#231;&#227;o e Navega&#231;&#227;o</text></g><!--cluster ? Personaliza??o e Recomenda??o--><g id="cluster_&#11088; Personaliza&#231;&#227;o e Recomenda&#231;&#227;o"><path d="M232,1188.55 L494.7754,1188.55 A3.75,3.75 0 0 1 497.2754,1191.05 L504.2754,1210.8469 L812,1210.8469 A2.5,2.5 0 0 1 814.5,1213.3469 L814.5,1539.05 A2.5,2.5 0 0 1 812,1541.55 L232,1541.55 A2.5,2.5 0 0 1 229.5,1539.05 L229.5,1191.05 A2.5,2.5 0 0 1 232,1188.55 " fill="none" style="stroke:#000000;stroke-width:1.5;"/><line style="stroke:#000000;stroke-width:1.5;" x1="229.5" x2="504.2754" y1="1210.8469" y2="1210.8469"/><text fill="#000000" font-family="sans-serif" font-size="14" font-weight="bold" lengthAdjust="spacing" textLength="261.7754" x="233.5" y="1203.5451">&#11088; Personaliza&#231;&#227;o e Recomenda&#231;&#227;o</text></g><!--cluster ? Internacionaliza??o--><g id="cluster_&#127760; Internacionaliza&#231;&#227;o"><path d="M215.5,1774.55 L375.7432,1774.55 A3.75,3.75 0 0 1 378.2432,1777.05 L385.2432,1796.8469 L838.5,1796.8469 A2.5,2.5 0 0 1 841,1799.3469 L841,1879.05 A2.5,2.5 0 0 1 838.5,1881.55 L215.5,1881.55 A2.5,2.5 0 0 1 213,1879.05 L213,1777.05 A2.5,2.5 0 0 1 215.5,1774.55 " fill="none" style="stroke:#000000;stroke-width:1.5;"/><line style="stroke:#000000;stroke-width:1.5;" x1="213" x2="385.2432" y1="1796.8469" y2="1796.8469"/><text fill="#000000" font-family="sans-serif" font-size="14" font-weight="bold" lengthAdjust="spacing" textLength="159.2432" x="217" y="1789.5451">&#127760; Internacionaliza&#231;&#227;o</text></g><!--cluster ? Administra??o--><g id="cluster_&#128295; Administra&#231;&#227;o"><path d="M241.5,1565.55 L361.124,1565.55 A3.75,3.75 0 0 1 363.624,1568.05 L370.624,1587.8469 L467.5,1587.8469 A2.5,2.5 0 0 1 470,1590.3469 L470,1748.05 A2.5,2.5 0 0 1 467.5,1750.55 L241.5,1750.55 A2.5,2.5 0 0 1 239,1748.05 L239,1568.05 A2.5,2.5 0 0 1 241.5,1565.55 " fill="none" style="stroke:#000000;stroke-width:1.5;"/><line style="stroke:#000000;stroke-width:1.5;" x1="239" x2="370.624" y1="1587.8469" y2="1587.8469"/><text fill="#000000" font-family="sans-serif" font-size="14" font-weight="bold" lengthAdjust="spacing" textLength="118.624" x="243" y="1580.5451">&#128295; Administra&#231;&#227;o</text></g><g id="elem_UC01"><ellipse cx="714.0269" cy="580.6522" fill="#EEF4FB" rx="119.0269" ry="35.1022" style="stroke:#2C6FAC;stroke-width:0.5;"/><text fill="#1A1A1A" font-family="sans-serif" font-size="13" lengthAdjust="spacing" textLength="152.0835" x="637.4623" y="568.1645">UC01 - Pesquisar locais</text><text fill="#1A1A1A" font-family="sans-serif" font-size="13" lengthAdjust="spacing" textLength="132.1392" x="647.4344" y="583.2974">por nome, categoria</text><text fill="#1A1A1A" font-family="sans-serif" font-size="13" lengthAdjust="spacing" textLength="92.0854" x="667.4613" y="598.4302">ou localiza&#231;&#227;o</text></g><g id="elem_UC02"><ellipse cx="354.6768" cy="570.5854" fill="#EEF4FB" rx="113.1768" ry="25.0354" style="stroke:#2C6FAC;stroke-width:0.5;"/><text fill="#1A1A1A" font-family="sans-serif" font-size="13" lengthAdjust="spacing" textLength="127.7402" x="290.8067" y="565.5194">UC02 - Filtrar locais</text><text fill="#1A1A1A" font-family="sans-serif" font-size="13" lengthAdjust="spacing" textLength="148.1733" x="280.5901" y="580.6523">por pre&#231;o ou categoria</text></g><g id="elem_UC03"><ellipse cx="713.7812" cy="701.5772" fill="#EEF4FB" rx="104.2812" ry="24.5272" style="stroke:#2C6FAC;stroke-width:0.5;"/><text fill="#1A1A1A" font-family="sans-serif" font-size="13" lengthAdjust="spacing" textLength="130.3936" x="645.5844" y="697.2943">UC03 - Ver detalhes</text><text fill="#1A1A1A" font-family="sans-serif" font-size="13" lengthAdjust="spacing" textLength="50.6289" x="685.4667" y="712.4271">do local</text></g><g id="elem_UC04"><ellipse cx="354.5675" cy="656.7635" fill="#EEF4FB" rx="119.0675" ry="26.2135" style="stroke:#2C6FAC;stroke-width:0.5;"/><text fill="#1A1A1A" font-family="sans-serif" font-size="13" lengthAdjust="spacing" textLength="114.4038" x="297.3656" y="651.6976">UC04 - Ver status</text><text fill="#1A1A1A" font-family="sans-serif" font-size="13" lengthAdjust="spacing" textLength="164.0298" x="272.5526" y="666.8304">do local (aberto/fechado)</text></g><g id="elem_UC05"><ellipse cx="354.5593" cy="742.3619" fill="#EEF4FB" rx="112.0593" ry="24.8119" style="stroke:#2C6FAC;stroke-width:0.5;"/><text fill="#1A1A1A" font-family="sans-serif" font-size="13" lengthAdjust="spacing" textLength="143.146" x="279.9863" y="738.0789">UC05 - Ver avalia&#231;&#245;es</text><text fill="#1A1A1A" font-family="sans-serif" font-size="13" lengthAdjust="spacing" textLength="92.8789" x="305.1198" y="753.2117">e coment&#225;rios</text></g><g id="elem_UC06"><ellipse cx="354.5831" cy="828.6666" fill="#EEF4FB" rx="116.0831" ry="25.6166" style="stroke:#2C6FAC;stroke-width:0.5;"/><text fill="#1A1A1A" font-family="sans-serif" font-size="13" lengthAdjust="spacing" textLength="154.686" x="274.2401" y="824.3837">UC06 - Ver informa&#231;&#245;es</text><text fill="#1A1A1A" font-family="sans-serif" font-size="13" lengthAdjust="spacing" textLength="106.9199" x="298.1232" y="839.5165">pr&#225;ticas do local</text></g><g id="elem_UC07"><ellipse cx="713.84" cy="1074.5264" fill="#EEF4FB" rx="93.34" ry="24.4764" style="stroke:#2C6FAC;stroke-width:0.5;"/><text fill="#1A1A1A" font-family="sans-serif" font-size="13" lengthAdjust="spacing" textLength="115.3115" x="653.1843" y="1070.2435">UC07 - Gerar rota</text><text fill="#1A1A1A" font-family="sans-serif" font-size="13" lengthAdjust="spacing" textLength="90.7588" x="665.4607" y="1085.3763">personalizada</text></g><g id="elem_UC08"><ellipse cx="354.5502" cy="1039.451" fill="#EEF4FB" rx="105.5502" ry="24.401" style="stroke:#2C6FAC;stroke-width:0.5;"/><text fill="#1A1A1A" font-family="sans-serif" font-size="13" lengthAdjust="spacing" textLength="116.2129" x="296.4437" y="1034.3851">UC08 - Selecionar</text><text fill="#1A1A1A" font-family="sans-serif" font-size="13" lengthAdjust="spacing" textLength="133.0278" x="288.0362" y="1049.5179">modal de transporte</text></g><g id="elem_UC09"><ellipse cx="354.473" cy="1123.7446" fill="#EEF4FB" rx="111.473" ry="24.6946" style="stroke:#2C6FAC;stroke-width:0.5;"/><text fill="#1A1A1A" font-family="sans-serif" font-size="13" lengthAdjust="spacing" textLength="141.4258" x="280.7601" y="1119.4616">UC09 - Visualizar rota</text><text fill="#1A1A1A" font-family="sans-serif" font-size="13" lengthAdjust="spacing" textLength="61.6421" x="320.6519" y="1134.5944">em mapa</text></g><g id="elem_UC10"><ellipse cx="354.6682" cy="954.3836" fill="#EEF4FB" rx="112.1682" ry="24.8336" style="stroke:#2C6FAC;stroke-width:0.5;"/><text fill="#1A1A1A" font-family="sans-serif" font-size="13" lengthAdjust="spacing" textLength="117.7617" x="295.7873" y="949.3177">UC10 - Ver roteiro</text><text fill="#1A1A1A" font-family="sans-serif" font-size="13" lengthAdjust="spacing" textLength="145.3867" x="281.9748" y="964.4505">pronto (1, 2 ou 3 dias)</text></g><g id="elem_UC11"><ellipse cx="714.1249" cy="1258.6515" fill="#EEF4FB" rx="84.6249" ry="35.1015" style="stroke:#2C6FAC;stroke-width:0.5;"/><text fill="#1A1A1A" font-family="sans-serif" font-size="13" lengthAdjust="spacing" textLength="101.8608" x="663.1945" y="1246.0192">UC11 - Receber</text><text fill="#1A1A1A" font-family="sans-serif" font-size="13" lengthAdjust="spacing" textLength="103.4351" x="662.4074" y="1261.152">recomenda&#231;&#245;es</text><text fill="#1A1A1A" font-family="sans-serif" font-size="13" lengthAdjust="spacing" textLength="97.5317" x="665.359" y="1276.2848">personalizadas</text></g><g id="elem_UC12"><ellipse cx="354.5267" cy="1248.4733" fill="#EEF4FB" rx="84.0267" ry="24.4233" style="stroke:#2C6FAC;stroke-width:0.5;"/><text fill="#1A1A1A" font-family="sans-serif" font-size="13" lengthAdjust="spacing" textLength="102.4702" x="300.6824" y="1244.0972">UC12 - Explorar</text><text fill="#1A1A1A" font-family="sans-serif" font-size="13" lengthAdjust="spacing" textLength="84.4111" x="309.712" y="1259.23">hidden gems</text></g><g id="elem_UC13"><ellipse cx="354.7224" cy="1332.5968" fill="#EEF4FB" rx="109.2224" ry="24.5468" style="stroke:#2C6FAC;stroke-width:0.5;"/><text fill="#1A1A1A" font-family="sans-serif" font-size="13" lengthAdjust="spacing" textLength="137.2046" x="283.1201" y="1328.3139">UC13 - Ver locais por</text><text fill="#1A1A1A" font-family="sans-serif" font-size="13" lengthAdjust="spacing" textLength="99.29" x="302.0774" y="1343.4467">custo-benef&#237;cio</text></g><g id="elem_UC14"><ellipse cx="354.3643" cy="1416.451" fill="#EEF4FB" rx="74.3643" ry="24.401" style="stroke:#2C6FAC;stroke-width:0.5;"/><text fill="#1A1A1A" font-family="sans-serif" font-size="13" lengthAdjust="spacing" textLength="88.9243" x="309.9021" y="1411.3851">UC14 - Salvar</text><text fill="#1A1A1A" font-family="sans-serif" font-size="13" lengthAdjust="spacing" textLength="56.9702" x="325.8792" y="1426.5179">favoritos</text></g><g id="elem_UC15"><ellipse cx="354.3643" cy="1500.451" fill="#EEF4FB" rx="74.3643" ry="24.401" style="stroke:#2C6FAC;stroke-width:0.5;"/><text fill="#1A1A1A" font-family="sans-serif" font-size="13" lengthAdjust="spacing" textLength="88.9243" x="309.9021" y="1495.3851">UC15 - Salvar</text><text fill="#1A1A1A" font-family="sans-serif" font-size="13" lengthAdjust="spacing" textLength="50.0767" x="329.3259" y="1510.5179">roteiros</text></g><g id="elem_UC16"><ellipse cx="714.1715" cy="1834.6843" fill="#EEF4FB" rx="111.1715" ry="24.6343" style="stroke:#2C6FAC;stroke-width:0.5;"/><text fill="#1A1A1A" font-family="sans-serif" font-size="13" lengthAdjust="spacing" textLength="140.5371" x="640.903" y="1830.4013">UC16 - Alterar idioma</text><text fill="#1A1A1A" font-family="sans-serif" font-size="13" lengthAdjust="spacing" textLength="78.3301" x="672.0065" y="1845.5342">da interface</text></g><g id="elem_UC17"><ellipse cx="354.5157" cy="1837.5531" fill="#EEF4FB" rx="125.5157" ry="27.5031" style="stroke:#2C6FAC;stroke-width:0.5;"/><text fill="#1A1A1A" font-family="sans-serif" font-size="13" lengthAdjust="spacing" textLength="101.6133" x="303.709" y="1832.4872">UC17 - Traduzir</text><text fill="#1A1A1A" font-family="sans-serif" font-size="13" lengthAdjust="spacing" textLength="180.7178" x="264.1568" y="1847.62">conte&#250;do automaticamente</text></g><g id="elem_UC18"><ellipse cx="354.6837" cy="1709.451" fill="#EEF4FB" rx="99.6837" ry="24.401" style="stroke:#2C6FAC;stroke-width:0.5;"/><text fill="#1A1A1A" font-family="sans-serif" font-size="13" lengthAdjust="spacing" textLength="111.814" x="298.7767" y="1704.3851">UC18 - Gerenciar</text><text fill="#1A1A1A" font-family="sans-serif" font-size="13" lengthAdjust="spacing" textLength="124.7314" x="292.318" y="1719.5179">curadoria premium</text></g><g id="elem_UC19"><ellipse cx="354.3246" cy="1625.451" fill="#EEF4FB" rx="96.8246" ry="24.401" style="stroke:#2C6FAC;stroke-width:0.5;"/><text fill="#1A1A1A" font-family="sans-serif" font-size="13" lengthAdjust="spacing" textLength="111.814" x="298.4176" y="1620.3851">UC19 - Gerenciar</text><text fill="#1A1A1A" font-family="sans-serif" font-size="13" lengthAdjust="spacing" textLength="120.688" x="293.9806" y="1635.5179">locais cadastrados</text></g><!--entity U--><g id="elem_U"><ellipse cx="73.7986" cy="749.05" fill="#D6E8FA" rx="8" ry="8" style="stroke:#1A5C99;stroke-width:0.5;"/><path d="M73.7986,757.05 L73.7986,784.05 M60.7986,765.05 L86.7986,765.05 M73.7986,784.05 L60.7986,799.05 M73.7986,784.05 L86.7986,799.05 " fill="none" style="stroke:#1A5C99;stroke-width:0.5;"/><text fill="#1A1A1A" font-family="sans-serif" font-size="13" font-weight="bold" lengthAdjust="spacing" textLength="56.1196" x="42" y="812.6169">Usu&#225;rio</text><text fill="#1A1A1A" font-family="sans-serif" font-size="13" font-weight="bold" lengthAdjust="spacing" textLength="63.5972" x="42" y="827.7497">(Turista)</text></g><!--entity A--><g id="elem_A"><ellipse cx="73.9316" cy="1629.55" fill="#D6E8FA" rx="8" ry="8" style="stroke:#1A5C99;stroke-width:0.5;"/><path d="M73.9316,1637.55 L73.9316,1664.55 M60.9316,1645.55 L86.9316,1645.55 M73.9316,1664.55 L60.9316,1679.55 M73.9316,1664.55 L86.9316,1679.55 " fill="none" style="stroke:#1A5C99;stroke-width:0.5;"/><text fill="#1A1A1A" font-family="sans-serif" font-size="13" font-weight="bold" lengthAdjust="spacing" textLength="104.8633" x="21.5" y="1693.1169">Administrador</text></g><!--entity MapAPI--><g id="elem_MapAPI"><ellipse cx="74.0625" cy="1102.1828" fill="#D6E8FA" rx="8" ry="8" style="stroke:#1A5C99;stroke-width:0.5;"/><path d="M74.0625,1110.1828 L74.0625,1137.1828 M61.0625,1118.1828 L87.0625,1118.1828 M74.0625,1137.1828 L61.0625,1152.1828 M74.0625,1137.1828 L87.0625,1152.1828 " fill="none" style="stroke:#1A5C99;stroke-width:0.5;"/><text fill="#1A1A1A" font-family="sans-serif" font-size="13" font-weight="bold" lengthAdjust="spacing" textLength="99.125" x="24.5" y="1165.7497">API de Mapas</text><text fill="#1A1A1A" font-family="sans-serif" font-size="13" font-weight="bold" lengthAdjust="spacing" textLength="77.9238" x="35.1006" y="1090.6169">&#171;external&#187;</text></g><!--entity TransAPI--><g id="elem_TransAPI"><ellipse cx="73.8108" cy="1938.1828" fill="#D6E8FA" rx="8" ry="8" style="stroke:#1A5C99;stroke-width:0.5;"/><path d="M73.8108,1946.1828 L73.8108,1973.1828 M60.8108,1954.1828 L86.8108,1954.1828 M73.8108,1973.1828 L60.8108,1988.1828 M73.8108,1973.1828 L86.8108,1988.1828 " fill="none" style="stroke:#1A5C99;stroke-width:0.5;"/><text fill="#1A1A1A" font-family="sans-serif" font-size="13" font-weight="bold" lengthAdjust="spacing" textLength="119.6216" x="14" y="2001.7497">API de Tradu&#231;&#227;o</text><text fill="#1A1A1A" font-family="sans-serif" font-size="13" font-weight="bold" lengthAdjust="spacing" textLength="77.9238" x="34.8489" y="1926.6169">&#171;external&#187;</text></g><!--entity LocAPI--><g id="elem_LocAPI"><ellipse cx="73.9771" cy="1800.1828" fill="#D6E8FA" rx="8" ry="8" style="stroke:#1A5C99;stroke-width:0.5;"/><path d="M73.9771,1808.1828 L73.9771,1835.1828 M60.9771,1816.1828 L86.9771,1816.1828 M73.9771,1835.1828 L60.9771,1850.1828 M73.9771,1835.1828 L86.9771,1850.1828 " fill="none" style="stroke:#1A5C99;stroke-width:0.5;"/><text fill="#1A1A1A" font-family="sans-serif" font-size="13" font-weight="bold" lengthAdjust="spacing" textLength="135.9541" x="6" y="1863.7497">API de Localiza&#231;&#227;o</text><text fill="#1A1A1A" font-family="sans-serif" font-size="13" font-weight="bold" lengthAdjust="spacing" textLength="77.9238" x="35.0151" y="1788.6169">&#171;external&#187;</text></g><g id="elem_GMN63"><path d="M941.5,1039.05 L941.5,1070.55 L807.55,1074.55 L941.5,1078.55 L941.5,1109.5813 A0,0 0 0 0 941.5,1109.5813 L1127.1582,1109.5813 A0,0 0 0 0 1127.1582,1109.5813 L1127.1582,1049.05 L1117.1582,1039.05 L941.5,1039.05 A0,0 0 0 0 941.5,1039.05 " fill="#FFFDE7" style="stroke:#F9A825;stroke-width:0.5;"/><path d="M1117.1582,1039.05 L1117.1582,1049.05 L1127.1582,1049.05 L1117.1582,1039.05 " fill="#FFFDE7" style="stroke:#F9A825;stroke-width:0.5;"/><text fill="#000000" font-family="sans-serif" font-size="13" lengthAdjust="spacing" textLength="164.6582" x="947.5" y="1056.1169">Otimiza ordem dos locais</text><text fill="#000000" font-family="sans-serif" font-size="13" lengthAdjust="spacing" textLength="154.6606" x="947.5" y="1071.2497">considerando dist&#226;ncia,</text><text fill="#000000" font-family="sans-serif" font-size="13" lengthAdjust="spacing" textLength="164.2202" x="947.5" y="1086.3825">tempo e perfil do usu&#225;rio</text><text fill="#000000" font-family="sans-serif" font-size="13" lengthAdjust="spacing" textLength="84.5127" x="947.5" y="1101.5153">(RF08, RF10)</text></g><g id="elem_GMN66"><path d="M920,1231.05 L920,1254.55 L798.68,1258.55 L920,1262.55 L920,1286.4484 A0,0 0 0 0 920,1286.4484 L1148.5366,1286.4484 A0,0 0 0 0 1148.5366,1286.4484 L1148.5366,1241.05 L1138.5366,1231.05 L920,1231.05 A0,0 0 0 0 920,1231.05 " fill="#FFFDE7" style="stroke:#F9A825;stroke-width:0.5;"/><path d="M1138.5366,1231.05 L1138.5366,1241.05 L1148.5366,1241.05 L1138.5366,1231.05 " fill="#FFFDE7" style="stroke:#F9A825;stroke-width:0.5;"/><text fill="#000000" font-family="sans-serif" font-size="13" lengthAdjust="spacing" textLength="118.0601" x="926" y="1248.1169">Baseado no perfil:</text><text fill="#000000" font-family="sans-serif" font-size="13" lengthAdjust="spacing" textLength="207.5366" x="926" y="1263.2497">econ&#244;mico, pr&#225;tico ou premium</text><text fill="#000000" font-family="sans-serif" font-size="13" lengthAdjust="spacing" textLength="125.8296" x="926" y="1278.3825">(RF13, RF14, RF15)</text></g><g id="elem_GMN69"><path d="M247.5,411.55 L247.5,451.8156 L461.3672,451.8156 L461.3672,421.55 L451.3672,411.55 L247.5,411.55 " fill="#FFFDE7" style="stroke:#F9A825;stroke-width:0.5;"/><path d="M451.3672,411.55 L451.3672,421.55 L461.3672,421.55 L451.3672,411.55 " fill="#FFFDE7" style="stroke:#F9A825;stroke-width:1.0;"/><text fill="#000000" font-family="sans-serif" font-size="13" lengthAdjust="spacing" textLength="176.249" x="253.5" y="428.6169">Curadoria especializada de</text><text fill="#000000" font-family="sans-serif" font-size="13" lengthAdjust="spacing" textLength="192.8672" x="253.5" y="443.7497">experi&#234;ncias premium (RF23)</text></g><!--link U to UC01--><g id="link_U_UC01"><path d="M74.82,740.54 C75.31,603.46 84.98,195.54 181,115.55 C312.5,6 444.07,23.43 565,144.55 C678.95,258.67 704.7695,457.7262 710.7895,539.4962 " fill="none" id="U-to-UC01" style="stroke:#4A4A4A;stroke-width:1.0;"/><polygon fill="#4A4A4A" points="711.23,545.48,714.5584,536.2106,710.8629,540.4935,706.58,536.798,711.23,545.48" style="stroke:#4A4A4A;stroke-width:1.0;"/></g><!--link U to UC02--><g id="link_U_UC02"><path d="M91.2,740.26 C107.71,700.62 137.17,644.51 181,612.55 C201.8,597.39 221.5582,589.1014 246.5882,582.8614 " fill="none" id="U-to-UC02" style="stroke:#4A4A4A;stroke-width:1.0;"/><polygon fill="#4A4A4A" points="252.41,581.41,242.7097,579.7059,247.5585,582.6195,244.6449,587.4683,252.41,581.41" style="stroke:#4A4A4A;stroke-width:1.0;"/></g><!--link U to UC03--><g id="link_U_UC03"><path d="M75.18,740.37 C76.72,613.98 88.57,261.48 172,190.55 C305.07,77.41 437.38,71.3 565,190.55 C636.93,257.77 543.15,548.86 595,632.55 C608.69,654.64 626.8469,667.851 649.3369,678.711 " fill="none" id="U-to-UC03" style="stroke:#4A4A4A;stroke-width:1.0;"/><polygon fill="#4A4A4A" points="654.74,681.32,648.3748,673.8044,650.2375,679.1458,644.8961,681.0085,654.74,681.32" style="stroke:#4A4A4A;stroke-width:1.0;"/></g><!--link U to UC04--><g id="link_U_UC04"><path d="M106.27,753.98 C126.12,735.61 153.22,713.41 181,699.55 C205.16,687.49 227.1328,680.0795 253.2628,673.6695 " fill="none" id="U-to-UC04" style="stroke:#4A4A4A;stroke-width:1.0;"/><polygon fill="#4A4A4A" points="259.09,672.24,249.3962,670.4994,254.234,673.4312,251.3022,678.269,259.09,672.24" style="stroke:#4A4A4A;stroke-width:1.0;"/></g><!--link U to UC05--><g id="link_U_UC05"><path d="M106.14,780.74 C143.61,774.96 202.2702,765.895 256.0602,757.595 " fill="none" id="U-to-UC05" style="stroke:#4A4A4A;stroke-width:1.0;"/><polygon fill="#4A4A4A" points="261.99,756.68,252.4853,754.0993,257.0485,757.4425,253.7053,762.0057,261.99,756.68" style="stroke:#4A4A4A;stroke-width:1.0;"/></g><!--link U to UC06--><g id="link_U_UC06"><path d="M106.14,790.36 C142.97,796.04 200.0801,804.8652 253.3001,813.0752 " fill="none" id="U-to-UC06" style="stroke:#4A4A4A;stroke-width:1.0;"/><polygon fill="#4A4A4A" points="259.23,813.99,250.9451,808.6646,254.2885,813.2277,249.7254,816.5711,259.23,813.99" style="stroke:#4A4A4A;stroke-width:1.0;"/></g><!--link U to UC07--><g id="link_U_UC07"><path d="M76.27,740.37 C80.57,624.66 98.74,322.49 172,261.55 C239.14,205.7 501.75,201.33 565,261.55 C614.07,308.26 575.83,805.57 595,870.55 C615.95,941.58 662.6294,1009.3731 690.3094,1045.7931 " fill="none" id="U-to-UC07" style="stroke:#4A4A4A;stroke-width:1.0;"/><polygon fill="#4A4A4A" points="693.94,1050.57,691.6788,1040.9842,690.9145,1046.5892,685.3095,1045.825,693.94,1050.57" style="stroke:#4A4A4A;stroke-width:1.0;"/></g><!--link U to UC08--><g id="link_U_UC08"><path d="M106.07,830.37 C127.85,863.76 155.99,911.22 173,956.55 C179.37,973.52 168.48,983.43 181,996.55 C199.64,1016.09 219.8555,1025.8904 246.0755,1032.1804 " fill="none" id="U-to-UC08" style="stroke:#4A4A4A;stroke-width:1.0;"/><polygon fill="#4A4A4A" points="251.91,1033.58,244.0914,1027.5909,247.0479,1032.4136,242.2252,1035.3702,251.91,1033.58" style="stroke:#4A4A4A;stroke-width:1.0;"/></g><!--link U to UC09--><g id="link_U_UC09"><path d="M92.16,830.69 C112.29,884.11 146.3,975.88 173,1055.55 C176.84,1067.01 172.2,1073.26 181,1081.55 C199.4,1098.88 217.8996,1107.9236 242.4396,1114.2436 " fill="none" id="U-to-UC09" style="stroke:#4A4A4A;stroke-width:1.0;"/><polygon fill="#4A4A4A" points="248.25,1115.74,240.532,1109.6218,243.408,1114.493,238.5368,1117.369,248.25,1115.74" style="stroke:#4A4A4A;stroke-width:1.0;"/></g><!--link U to UC10--><g id="link_U_UC10"><path d="M106.08,813.54 C126.5,831.14 154.3,853.64 181,870.55 C219.27,894.79 260.073,914.5525 295.063,930.0325 " fill="none" id="U-to-UC10" style="stroke:#4A4A4A;stroke-width:1.0;"/><polygon fill="#4A4A4A" points="300.55,932.46,293.9378,925.1607,295.9775,930.4371,290.7012,932.4767,300.55,932.46" style="stroke:#4A4A4A;stroke-width:1.0;"/></g><!--link U to UC11--><g id="link_U_UC11"><path d="M77.7,740.4 C84.96,636.14 108.83,383.62 172,332.55 C239.91,277.64 502.14,271.92 565,332.55 C631.58,396.77 553.35,1081.95 595,1164.55 C609.21,1192.73 631.1527,1211.9502 655.7227,1227.8502 " fill="none" id="U-to-UC11" style="stroke:#4A4A4A;stroke-width:1.0;"/><polygon fill="#4A4A4A" points="660.76,1231.11,655.3773,1222.8622,656.5623,1228.3935,651.0309,1229.5785,660.76,1231.11" style="stroke:#4A4A4A;stroke-width:1.0;"/></g><!--link U to UC12--><g id="link_U_UC12"><path d="M85.44,830.74 C107.64,925.52 159.31,1138.55 181,1164.55 C209.16,1198.32 248.4752,1217.6416 285.4352,1230.3316 " fill="none" id="U-to-UC12" style="stroke:#4A4A4A;stroke-width:1.0;"/><polygon fill="#4A4A4A" points="291.11,1232.28,283.8967,1225.5742,286.381,1230.6563,281.2988,1233.1406,291.11,1232.28" style="stroke:#4A4A4A;stroke-width:1.0;"/></g><!--link U to UC13--><g id="link_U_UC13"><path d="M87.01,830.58 C101.25,884.87 125.17,978.98 142,1060.55 C162.95,1162.09 110.33,1214.69 181,1290.55 C198.65,1309.49 217.4683,1319.0781 242.6083,1325.3481 " fill="none" id="U-to-UC13" style="stroke:#4A4A4A;stroke-width:1.0;"/><polygon fill="#4A4A4A" points="248.43,1326.8,240.6655,1320.741,243.5786,1325.59,238.7295,1328.5032,248.43,1326.8" style="stroke:#4A4A4A;stroke-width:1.0;"/></g><!--link U to UC14--><g id="link_U_UC14"><path d="M87.77,830.94 C102.62,885.18 127.03,978.86 142,1060.55 C154.68,1129.71 134.23,1322.05 181,1374.55 C205.6,1402.17 239.076,1412.4634 274.046,1416.3134 " fill="none" id="U-to-UC14" style="stroke:#4A4A4A;stroke-width:1.0;"/><polygon fill="#4A4A4A" points="280.01,1416.97,271.5018,1412.0091,275.04,1416.4228,270.6263,1419.9611,280.01,1416.97" style="stroke:#4A4A4A;stroke-width:1.0;"/></g><!--link U to UC15--><g id="link_U_UC15"><path d="M88.15,830.87 C103.38,885.05 128.14,978.67 142,1060.55 C156.84,1148.17 122.61,1391.56 181,1458.55 C205.3,1486.43 238.7648,1496.7544 273.7848,1500.5444 " fill="none" id="U-to-UC15" style="stroke:#4A4A4A;stroke-width:1.0;"/><polygon fill="#4A4A4A" points="279.75,1501.19,271.2326,1496.2449,274.779,1500.652,270.3719,1504.1984,279.75,1501.19" style="stroke:#4A4A4A;stroke-width:1.0;"/></g><!--link U to UC16--><g id="link_U_UC16"><path d="M80.37,740.48 C92.56,646.74 125.65,435.92 181,393.55 C286.52,312.77 363.77,329.13 480,393.55 C542.34,428.1 544.34,461.33 565,529.55 C630.22,744.88 548.93,1321.33 595,1541.55 C616.84,1645.95 670.8049,1755.5361 696.8149,1804.7161 " fill="none" id="U-to-UC16" style="stroke:#4A4A4A;stroke-width:1.0;"/><polygon fill="#4A4A4A" points="699.62,1810.02,698.9483,1800.1941,697.2824,1805.6001,691.8764,1803.9342,699.62,1810.02" style="stroke:#4A4A4A;stroke-width:1.0;"/></g><!--link A to UC18--><g id="link_A_UC18"><path d="M126.73,1668.02 C168.1,1675.6 220.9081,1685.2697 268.2181,1693.9297 " fill="none" id="A-to-UC18" style="stroke:#4A4A4A;stroke-width:1.0;"/><polygon fill="#4A4A4A" points="274.12,1695.01,265.9873,1689.4549,269.2017,1694.1097,264.5469,1697.3241,274.12,1695.01" style="stroke:#4A4A4A;stroke-width:1.0;"/></g><!--link A to UC19--><g id="link_A_UC19"><path d="M126.73,1652.42 C165.9,1647.78 214.6518,1642.0068 260.5118,1636.5668 " fill="none" id="A-to-UC19" style="stroke:#4A4A4A;stroke-width:1.0;"/><polygon fill="#4A4A4A" points="266.47,1635.86,257.0615,1632.948,261.5048,1636.449,258.0038,1640.8923,266.47,1635.86" style="stroke:#4A4A4A;stroke-width:1.0;"/></g><!--link UC08 to UC07--><g id="link_UC08_UC07"><path d="M452.24,1049.02 C506.53,1054.34 567.7186,1060.325 620.2886,1065.475 " fill="none" id="UC08-to-UC07" style="stroke:#4A4A4A;stroke-width:1.0;stroke-dasharray:7.0,7.0;"/><polygon fill="#4A4A4A" points="626.26,1066.06,617.6929,1061.2016,621.2838,1065.5725,616.9129,1069.1635,626.26,1066.06" style="stroke:#4A4A4A;stroke-width:1.0;"/><text fill="#000000" font-family="sans-serif" font-size="11" lengthAdjust="spacing" textLength="53.3135" x="511" y="1052.7604">&#171;include&#187;</text></g><!--link UC09 to UC07--><g id="link_UC09_UC07"><path d="M449.43,1110.68 C505.7,1102.96 570.6255,1094.0645 624.7055,1086.6545 " fill="none" id="UC09-to-UC07" style="stroke:#4A4A4A;stroke-width:1.0;stroke-dasharray:7.0,7.0;"/><polygon fill="#4A4A4A" points="630.65,1085.84,621.1903,1083.0988,625.6963,1086.5188,622.2763,1091.0247,630.65,1085.84" style="stroke:#4A4A4A;stroke-width:1.0;"/><text fill="#000000" font-family="sans-serif" font-size="11" lengthAdjust="spacing" textLength="53.3135" x="511" y="1093.7604">&#171;include&#187;</text></g><!--link UC04 to UC03--><g id="link_UC04_UC03"><path d="M457.95,669.45 C509.53,675.94 565.597,682.9905 615.557,689.2805 " fill="none" id="UC04-to-UC03" style="stroke:#4A4A4A;stroke-width:1.0;stroke-dasharray:7.0,7.0;"/><polygon fill="#4A4A4A" points="621.51,690.03,613.0802,684.9371,616.5492,689.4054,612.0808,692.8744,621.51,690.03" style="stroke:#4A4A4A;stroke-width:1.0;"/><text fill="#000000" font-family="sans-serif" font-size="11" lengthAdjust="spacing" textLength="53.3135" x="511" y="673.7604">&#171;include&#187;</text></g><!--link UC05 to UC03--><g id="link_UC05_UC03"><path d="M465.02,738.34 C497.3,736.41 532.64,733.6 565,729.55 C588.22,726.64 607.4069,723.4774 630.1969,719.1174 " fill="none" id="UC05-to-UC03" style="stroke:#4A4A4A;stroke-width:1.0;stroke-dasharray:7.0,7.0;"/><polygon fill="#4A4A4A" points="636.09,717.99,626.4987,715.7524,631.1791,718.9295,628.0019,723.6099,636.09,717.99" style="stroke:#4A4A4A;stroke-width:1.0;"/><text fill="#000000" font-family="sans-serif" font-size="11" lengthAdjust="spacing" textLength="53.3135" x="511" y="726.7604">&#171;include&#187;</text></g><!--link UC06 to UC03--><g id="link_UC06_UC03"><path d="M419.89,807.38 C461.43,793.56 516.56,774.92 565,757.55 C596.29,746.33 625.4674,735.3573 653.4374,724.6373 " fill="none" id="UC06-to-UC03" style="stroke:#4A4A4A;stroke-width:1.0;stroke-dasharray:7.0,7.0;"/><polygon fill="#4A4A4A" points="659.04,722.49,649.2046,721.9759,654.3712,724.2794,652.0676,729.446,659.04,722.49" style="stroke:#4A4A4A;stroke-width:1.0;"/><text fill="#000000" font-family="sans-serif" font-size="11" lengthAdjust="spacing" textLength="53.3135" x="511" y="754.7604">&#171;include&#187;</text></g><!--link UC17 to UC16--><g id="link_UC17_UC16"><path d="M480.03,1836.5 C520.03,1836.17 558.0402,1835.8509 596.9202,1835.5209 " fill="none" id="UC17-to-UC16" style="stroke:#4A4A4A;stroke-width:1.0;stroke-dasharray:7.0,7.0;"/><polygon fill="#4A4A4A" points="602.92,1835.47,593.8864,1831.5465,597.9202,1835.5124,593.9543,1839.5462,602.92,1835.47" style="stroke:#4A4A4A;stroke-width:1.0;"/><text fill="#000000" font-family="sans-serif" font-size="11" lengthAdjust="spacing" textLength="53.3135" x="511" y="1833.7604">&#171;include&#187;</text></g><!--link UC02 to UC01--><g id="link_UC02_UC01"><path d="M466.66,573.66 C507.55,574.8 547.9723,575.9321 589.4123,577.0921 " fill="none" id="UC02-to-UC01" style="stroke:#4A4A4A;stroke-width:1.0;stroke-dasharray:7.0,7.0;"/><polygon fill="#4A4A4A" points="595.41,577.26,586.5254,573.0097,590.412,577.1201,586.3016,581.0066,595.41,577.26" style="stroke:#4A4A4A;stroke-width:1.0;"/><text fill="#000000" font-family="sans-serif" font-size="11" lengthAdjust="spacing" textLength="51.772" x="512" y="572.7604">&#171;extend&#187;</text></g><!--link UC13 to UC11--><g id="link_UC13_UC11"><path d="M435.29,1316.04 C495.89,1303.49 572.7845,1287.5761 632.1645,1275.2861 " fill="none" id="UC13-to-UC11" style="stroke:#4A4A4A;stroke-width:1.0;stroke-dasharray:7.0,7.0;"/><polygon fill="#4A4A4A" points="638.04,1274.07,628.4161,1271.9771,633.1438,1275.0834,630.0375,1279.8111,638.04,1274.07" style="stroke:#4A4A4A;stroke-width:1.0;"/><text fill="#000000" font-family="sans-serif" font-size="11" lengthAdjust="spacing" textLength="51.772" x="512" y="1288.7604">&#171;extend&#187;</text></g><!--link UC12 to UC11--><g id="link_UC12_UC11"><path d="M438.42,1250.87 C495.86,1252.48 566.0623,1254.4422 623.6123,1256.0522 " fill="none" id="UC12-to-UC11" style="stroke:#4A4A4A;stroke-width:1.0;stroke-dasharray:7.0,7.0;"/><polygon fill="#4A4A4A" points="629.61,1256.22,620.7254,1251.9699,624.612,1256.0802,620.5017,1259.9668,629.61,1256.22" style="stroke:#4A4A4A;stroke-width:1.0;"/><text fill="#000000" font-family="sans-serif" font-size="11" lengthAdjust="spacing" textLength="51.772" x="512" y="1250.7604">&#171;extend&#187;</text></g><!--link MapAPI to UC09--><g id="link_MapAPI_UC09"><path d="M123.51,1123.55 C156.47,1123.55 195.45,1123.55 236.89,1123.55 " fill="none" id="MapAPI-to-UC09" style="stroke:#4A4A4A;stroke-width:1.0;"/><polygon fill="#4A4A4A" points="242.89,1123.55,233.89,1119.55,237.89,1123.55,233.89,1127.55,242.89,1123.55" style="stroke:#4A4A4A;stroke-width:1.0;"/></g><!--link LocAPI to UC08--><g id="link_LocAPI_UC08"><path d="M109.91,1776.46 C122.31,1757.97 134.93,1735.73 142,1713.55 C163.36,1646.51 135.85,1135.51 181,1081.55 C198.31,1060.87 218.0968,1050.7828 244.3368,1044.6628 " fill="none" id="LocAPI-to-UC08" style="stroke:#4A4A4A;stroke-width:1.0;"/><polygon fill="#4A4A4A" points="250.18,1043.3,240.5067,1041.4488,245.3107,1044.4357,242.3238,1049.2397,250.18,1043.3" style="stroke:#4A4A4A;stroke-width:1.0;"/></g><!--link LocAPI to UC07--><g id="link_LocAPI_UC07"><path d="M142.06,1866.21 C154.54,1872.54 167.81,1878.08 181,1881.55 C346.04,1925.02 441.67,1999.52 565,1881.55 C619.17,1829.74 566.84,1277.02 595,1207.55 C613.44,1162.06 649.9025,1125.6372 678.3725,1101.6372 " fill="none" id="LocAPI-to-UC07" style="stroke:#4A4A4A;stroke-width:1.0;"/><polygon fill="#4A4A4A" points="682.96,1097.77,673.5007,1100.5125,679.1371,1100.9927,678.6569,1106.6291,682.96,1097.77" style="stroke:#4A4A4A;stroke-width:1.0;"/></g><!--link TransAPI to UC17--><g id="link_TransAPI_UC17"><path d="M134.06,1933.68 C182.28,1912.55 244.4643,1885.3176 291.8743,1864.5476 " fill="none" id="TransAPI-to-UC17" style="stroke:#4A4A4A;stroke-width:1.0;"/><polygon fill="#4A4A4A" points="297.37,1862.14,287.5213,1862.0876,292.7902,1864.1464,290.7315,1869.4153,297.37,1862.14" style="stroke:#4A4A4A;stroke-width:1.0;"/></g><!--link UC18 to GMN69--><g id="link_UC18_GMN69"><path d="M254.93,1708.25 C216.27,1701.71 177.47,1685.83 161.5,1650.05 C136.53,1594.09 136.53,603.01 161.5,547.05 C183.3,498.2 237.04,468.55 282.29,451.55 " fill="none" id="UC18-GMN69" style="stroke:#4A4A4A;stroke-width:1.0;stroke-dasharray:7.0,7.0;"/></g><!--SRC=[hLVDRkCs4BxxAGRf8GcGx5h-zs8Rm76iHO1s6-Id9ryOYNQ8IAHBKjaqHO0-m2wwXmLwBBOz12YGMmiKU_MRx0kqZz0X9Kh-aTCwY0mO58Vp3UT_j0bVhlDKDg4l-8YD4qccTzC_gO8hfXB255BMGrANZ4-8936Sa-1oB4N2mxw8X8Gl_9xvpPn850s8el131V3PNpm_6FWDVp-b2HbIcUtN-Ys_rxVxlk0ws_LwvfVldh0R2bwzSZiZZmGQJwwGTj0QTFpUiZIlr-ntk_zJMlwkluyed8iedBk0f84cV1ojLDcl-ctVVr3bTF_qWWMNd2e5jOLBDCekiNJxEcerRnifnPliMjcfHi_y5k2zEIukz6fTVFzWq5xMnU_sEhKcmbGYEjAW1KWslj0GCcCU9dXbxQ3RX1vwbguVhMb4R9ofPFfHCZ7aMwU9P4gJxGqW2ixSWLuOCuxxaeH2Mb8l9nqTGaZXQp8Xob9mPVPUlgJNcafEehszXREd29DWdlqcB0E-SlKVB5-9W4JiXXHSkBF4ymZ3dQ1MD2PhSnQXlF7FBs_V0RnA606qtlHUQHO8E61ZfacqWU5XOs0JTl61_KG512WChjavizhOVNjaWY54nXRnmxkIanjPg9d7rOwDitxLWrquekgxX2aY8K9JCJNa4pGV5p7TWO1eEXQIaI4NYQNFcz90b0BN4DXd4Rfz7dOYwVHE08Bbq0weLWfKHw1lgKHFeaakACA48hs8uwkNyZKoFen8dSnmmHOvfrABvoCQN61CRZkOHYbCCuCXLwXvLk67d4A0vk7QXhvo2CrIX5Q6mFX8o3Y7cCZfH_GsSYxgqx8mjtE-FyPgmQGpVQdVV_xqzry_BHway9fSqJ5vC0ZQUCDNr7XA2esUdb2f1BUU3dFlj4jPEyXwGYCQOF4XSiXZ4QA9CUkqoKnqkAOEe5CAq3NMCGtJI7CNe374M1GSPxUCqwjcTfLMOs4iYgLMm9Qt0pKJO7MiYqGv_thLChDIwyTmfLa_tx_7_CZDuOmwpxV2hfv9BZn9CTw6NCwmf04mQsKNGrvfDdaccmRN4sm2niWNB0mfXp6DSxRItF5SxgG92EYE8GyIfSNkEULqDBr7jpc4qYpoJ1QTaEZAY1sHAqnNdSUxLvenNdE69VDDpj4iyS4XjqNOHb3qO8I_VLz-U9NzJURr8cqZcuLCn1XQ8S54nAqH2LnaUgrIRfCLjjtSC6CsZ2qw_OIvIXADI2PrJGN8GTebgXMzxu5oVRTuR9KwdJHDAGyOiOwqBHLR1zRKc2MnkqbfeddTUUui908JUxOtvpxgEaLk7zCKZscKUiSOHoZu_EC7S3F2sd1dQB6zjCVaorgnh1VBHh5i5ijMiMmNoqwnxEPBB0_vif3c5TAyGffNIFCAQHX6JsIlkP5fRSoUkq-dM7QVwcgC1r62vVqvcDc9X-kxrFICPyzIdy0B7C8oI9p1R3jOJMiuMdsPrdo0rbfDmoHFQLWhvcaLEyDaZ9ubfXgdV7N7jqoghI0zLN0S7Ih81jVrf_Pimix3Fnk5yyoOVszNyW4x2wJsOzHuZKtTt7aIOT7KxEeHzxPVI-d7ZXYvSUGRpMBi0M0-aM8SerJMw924vLen_70YPkuBCPUclvh2juCadDadfeTZ_nsno4nVYQjF05l7VhMp0yU-LzskeD_iPrfbIRnjq_jOMZ53yKY6zG8tiSlpwHynZl4xa8ruTjhDQdGgmgjR4GtxtrmIT2uqjfXCagdc_RpKKpN1MIiR6d3ECXAlKJgR_cxqKqwEaLAhpo3_2m00]--></g></svg>