<svg xmlns="http://www.w3.org/2000/svg" xmlns:xlink="http://www.w3.org/1999/xlink" contentStyleType="text/css" height="3037px" preserveAspectRatio="none" style="width:883px;height:3037px;background:#FAFAFA;" version="1.1" viewBox="0 0 883 3037" width="883px" zoomAndPan="magnify"><defs/><g><rect fill="#FAFAFA" height="3037" style="stroke:none;stroke-width:1.0;" width="883" x="0" y="0"/><!--cluster ? Guia Tur?stico Digital--><g id="cluster_&#127757; Guia Tur&#237;stico Digital"><rect fill="#F0F7FF" height="2848" rx="2.5" ry="2.5" style="stroke:#2C6FAC;stroke-width:2.0;" width="354" x="243" y="183"/><text fill="#1A3A5C" font-family="sans-serif" font-size="14" font-weight="bold" lengthAdjust="spacing" textLength="171.4658" x="334.2671" y="197.9951">&#127757; Guia Tur&#237;stico Digital</text></g><!--cluster ? Autentica??o e Perfil--><g id="cluster_&#128100; Autentica&#231;&#227;o e Perfil"><path d="M292.5,1977 L463.5234,1977 A3.75,3.75 0 0 1 466.0234,1979.5 L473.0234,1999.2969 L547.5,1999.2969 A2.5,2.5 0 0 1 550,2001.7969 L550,2304.5 A2.5,2.5 0 0 1 547.5,2307 L292.5,2307 A2.5,2.5 0 0 1 290,2304.5 L290,1979.5 A2.5,2.5 0 0 1 292.5,1977 " fill="none" style="stroke:#000000;stroke-width:1.5;"/><line style="stroke:#000000;stroke-width:1.5;" x1="290" x2="473.0234" y1="1999.2969" y2="1999.2969"/><text fill="#000000" font-family="sans-serif" font-size="14" font-weight="bold" lengthAdjust="spacing" textLength="170.0234" x="294" y="1991.9951">&#128100; Autentica&#231;&#227;o e Perfil</text></g><!--cluster ? Busca e Exibi??o--><g id="cluster_&#128269; Busca e Exibi&#231;&#227;o"><path d="M285,226 L422.4111,226 A3.75,3.75 0 0 1 424.9111,228.5 L431.9111,248.2969 L555,248.2969 A2.5,2.5 0 0 1 557.5,250.7969 L557.5,820.5 A2.5,2.5 0 0 1 555,823 L285,823 A2.5,2.5 0 0 1 282.5,820.5 L282.5,228.5 A2.5,2.5 0 0 1 285,226 " fill="none" style="stroke:#000000;stroke-width:1.5;"/><line style="stroke:#000000;stroke-width:1.5;" x1="282.5" x2="431.9111" y1="248.2969" y2="248.2969"/><text fill="#000000" font-family="sans-serif" font-size="14" font-weight="bold" lengthAdjust="spacing" textLength="136.4111" x="286.5" y="240.9951">&#128269; Busca e Exibi&#231;&#227;o</text></g><!--cluster ? Avalia??o--><g id="cluster_&#11088; Avalia&#231;&#227;o"><path d="M301.5,1318 L383.1914,1318 A3.75,3.75 0 0 1 385.6914,1320.5 L392.6914,1340.2969 L538.5,1340.2969 A2.5,2.5 0 0 1 541,1342.7969 L541,1416.5 A2.5,2.5 0 0 1 538.5,1419 L301.5,1419 A2.5,2.5 0 0 1 299,1416.5 L299,1320.5 A2.5,2.5 0 0 1 301.5,1318 " fill="none" style="stroke:#000000;stroke-width:1.5;"/><line style="stroke:#000000;stroke-width:1.5;" x1="299" x2="392.6914" y1="1340.2969" y2="1340.2969"/><text fill="#000000" font-family="sans-serif" font-size="14" font-weight="bold" lengthAdjust="spacing" textLength="80.6914" x="303" y="1332.9951">&#11088; Avalia&#231;&#227;o</text></g><!--cluster ?? Roteiriza??o e Navega??o--><g id="cluster_&#128506;&#65039; Roteiriza&#231;&#227;o e Navega&#231;&#227;o"><path d="M287,1443 L496.7832,1443 A3.75,3.75 0 0 1 499.2832,1445.5 L506.2832,1465.2969 L553,1465.2969 A2.5,2.5 0 0 1 555.5,1467.7969 L555.5,1950.5 A2.5,2.5 0 0 1 553,1953 L287,1953 A2.5,2.5 0 0 1 284.5,1950.5 L284.5,1445.5 A2.5,2.5 0 0 1 287,1443 " fill="none" style="stroke:#000000;stroke-width:1.5;"/><line style="stroke:#000000;stroke-width:1.5;" x1="284.5" x2="506.2832" y1="1465.2969" y2="1465.2969"/><text fill="#000000" font-family="sans-serif" font-size="14" font-weight="bold" lengthAdjust="spacing" textLength="208.7832" x="288.5" y="1457.9951">&#128506;&#65039; Roteiriza&#231;&#227;o e Navega&#231;&#227;o</text></g><!--cluster ? Personaliza??o e Recomenda??o--><g id="cluster_&#128161; Personaliza&#231;&#227;o e Recomenda&#231;&#227;o"><path d="M269.5,847 L532.2754,847 A3.75,3.75 0 0 1 534.7754,849.5 L541.7754,869.2969 L570.5,869.2969 A2.5,2.5 0 0 1 573,871.7969 L573,1291.5 A2.5,2.5 0 0 1 570.5,1294 L269.5,1294 A2.5,2.5 0 0 1 267,1291.5 L267,849.5 A2.5,2.5 0 0 1 269.5,847 " fill="none" style="stroke:#000000;stroke-width:1.5;"/><line style="stroke:#000000;stroke-width:1.5;" x1="267" x2="541.7754" y1="869.2969" y2="869.2969"/><text fill="#000000" font-family="sans-serif" font-size="14" font-weight="bold" lengthAdjust="spacing" textLength="261.7754" x="271" y="861.9951">&#128161; Personaliza&#231;&#227;o e Recomenda&#231;&#227;o</text></g><!--cluster ? Internacionaliza??o--><g id="cluster_&#127760; Internacionaliza&#231;&#227;o"><path d="M286,2331 L446.2432,2331 A3.75,3.75 0 0 1 448.7432,2333.5 L455.7432,2353.2969 L554,2353.2969 A2.5,2.5 0 0 1 556.5,2355.7969 L556.5,2531.5 A2.5,2.5 0 0 1 554,2534 L286,2534 A2.5,2.5 0 0 1 283.5,2531.5 L283.5,2333.5 A2.5,2.5 0 0 1 286,2331 " fill="none" style="stroke:#000000;stroke-width:1.5;"/><line style="stroke:#000000;stroke-width:1.5;" x1="283.5" x2="455.7432" y1="2353.2969" y2="2353.2969"/><text fill="#000000" font-family="sans-serif" font-size="14" font-weight="bold" lengthAdjust="spacing" textLength="159.2432" x="287.5" y="2345.9951">&#127760; Internacionaliza&#231;&#227;o</text></g><!--cluster ? Gest?o de Locais--><g id="cluster_&#128295; Gest&#227;o de Locais"><path d="M282,2558 L421.6328,2558 A3.75,3.75 0 0 1 424.1328,2560.5 L431.1328,2580.2969 L558,2580.2969 A2.5,2.5 0 0 1 560.5,2582.7969 L560.5,3004.5 A2.5,2.5 0 0 1 558,3007 L282,3007 A2.5,2.5 0 0 1 279.5,3004.5 L279.5,2560.5 A2.5,2.5 0 0 1 282,2558 " fill="none" style="stroke:#000000;stroke-width:1.5;"/><line style="stroke:#000000;stroke-width:1.5;" x1="279.5" x2="431.1328" y1="2580.2969" y2="2580.2969"/><text fill="#000000" font-family="sans-serif" font-size="14" font-weight="bold" lengthAdjust="spacing" textLength="138.6328" x="283.5" y="2572.9951">&#128295; Gest&#227;o de Locais</text></g><g id="elem_UC01"><ellipse cx="419.8577" cy="2200.1715" fill="#EEF4FB" rx="78.8577" ry="18.1715" style="stroke:#2C6FAC;stroke-width:0.5;"/><text fill="#1A1A1A" font-family="sans-serif" font-size="13" lengthAdjust="spacing" textLength="119.501" x="360.1072" y="2202.672">UC01 - Fazer login</text></g><g id="elem_UC02"><ellipse cx="419.983" cy="2271.9966" fill="#EEF4FB" rx="82.983" ry="18.9966" style="stroke:#2C6FAC;stroke-width:0.5;"/><text fill="#1A1A1A" font-family="sans-serif" font-size="13" lengthAdjust="spacing" textLength="128.9399" x="355.513" y="2274.4971">UC02 - Fazer logout</text></g><g id="elem_UC03"><ellipse cx="420.068" cy="2036.8136" fill="#EEF4FB" rx="112.068" ry="24.8136" style="stroke:#2C6FAC;stroke-width:0.5;"/><text fill="#1A1A1A" font-family="sans-serif" font-size="13" lengthAdjust="spacing" textLength="143.1714" x="345.4823" y="2032.5306">UC03 - Atualizar perfil</text><text fill="#1A1A1A" font-family="sans-serif" font-size="13" lengthAdjust="spacing" textLength="93.3804" x="370.3778" y="2047.6634">e prefer&#234;ncias</text></g><g id="elem_UC04"><ellipse cx="419.7822" cy="2122.1564" fill="#EEF4FB" rx="113.7822" ry="25.1564" style="stroke:#2C6FAC;stroke-width:0.5;"/><text fill="#1A1A1A" font-family="sans-serif" font-size="13" lengthAdjust="spacing" textLength="148.1416" x="342.7114" y="2117.8735">UC04 - Definir persona</text><text fill="#1A1A1A" font-family="sans-serif" font-size="13" lengthAdjust="spacing" textLength="68.5674" x="382.4985" y="2133.0063">de viagem</text></g><g id="elem_UC05"><ellipse cx="420.0269" cy="296.1022" fill="#EEF4FB" rx="119.0269" ry="35.1022" style="stroke:#2C6FAC;stroke-width:0.5;"/><text fill="#1A1A1A" font-family="sans-serif" font-size="13" lengthAdjust="spacing" textLength="152.0835" x="343.4623" y="283.6145">UC05 - Pesquisar locais</text><text fill="#1A1A1A" font-family="sans-serif" font-size="13" lengthAdjust="spacing" textLength="132.1392" x="353.4344" y="298.7474">por nome, categoria</text><text fill="#1A1A1A" font-family="sans-serif" font-size="13" lengthAdjust="spacing" textLength="92.0854" x="373.4613" y="313.8802">ou localiza&#231;&#227;o</text></g><g id="elem_UC06"><ellipse cx="420.1768" cy="405.0354" fill="#EEF4FB" rx="113.1768" ry="25.0354" style="stroke:#2C6FAC;stroke-width:0.5;"/><text fill="#1A1A1A" font-family="sans-serif" font-size="13" lengthAdjust="spacing" textLength="127.7402" x="356.3067" y="399.9694">UC06 - Filtrar locais</text><text fill="#1A1A1A" font-family="sans-serif" font-size="13" lengthAdjust="spacing" textLength="148.1733" x="346.0901" y="415.1023">por pre&#231;o ou categoria</text></g><g id="elem_UC07"><ellipse cx="419.7812" cy="490.0272" fill="#EEF4FB" rx="104.2812" ry="24.5272" style="stroke:#2C6FAC;stroke-width:0.5;"/><text fill="#1A1A1A" font-family="sans-serif" font-size="13" lengthAdjust="spacing" textLength="130.3936" x="351.5844" y="485.7443">UC07 - Ver detalhes</text><text fill="#1A1A1A" font-family="sans-serif" font-size="13" lengthAdjust="spacing" textLength="50.6289" x="391.4667" y="500.8771">do local</text></g><g id="elem_UC08"><ellipse cx="419.8364" cy="590.1673" fill="#EEF4FB" rx="121.3364" ry="26.6673" style="stroke:#2C6FAC;stroke-width:0.5;"/><text fill="#1A1A1A" font-family="sans-serif" font-size="13" lengthAdjust="spacing" textLength="169.165" x="332.2538" y="585.8843">UC08 - Ver status do local</text><text fill="#1A1A1A" font-family="sans-serif" font-size="13" lengthAdjust="spacing" textLength="109.2686" x="362.2021" y="601.0171">(aberto/fechado)</text></g><g id="elem_UC09"><ellipse cx="420.0593" cy="676.8119" fill="#EEF4FB" rx="112.0593" ry="24.8119" style="stroke:#2C6FAC;stroke-width:0.5;"/><text fill="#1A1A1A" font-family="sans-serif" font-size="13" lengthAdjust="spacing" textLength="143.146" x="345.4863" y="672.5289">UC09 - Ver avalia&#231;&#245;es</text><text fill="#1A1A1A" font-family="sans-serif" font-size="13" lengthAdjust="spacing" textLength="92.8789" x="370.6198" y="687.6617">e coment&#225;rios</text></g><g id="elem_UC10"><ellipse cx="419.8763" cy="772.1047" fill="#EEF4FB" rx="120.8763" ry="35.1047" style="stroke:#2C6FAC;stroke-width:0.5;"/><text fill="#1A1A1A" font-family="sans-serif" font-size="13" lengthAdjust="spacing" textLength="154.686" x="341.3717" y="759.7887">UC10 - Ver informa&#231;&#245;es</text><text fill="#1A1A1A" font-family="sans-serif" font-size="13" lengthAdjust="spacing" textLength="106.9199" x="365.2548" y="774.9215">pr&#225;ticas do local</text><text fill="#1A1A1A" font-family="sans-serif" font-size="13" lengthAdjust="spacing" textLength="131.9805" x="352.7245" y="790.0543">(seguran&#231;a, cultura)</text></g><g id="elem_UC11"><ellipse cx="420.2001" cy="1377.901" fill="#EEF4FB" rx="105.2001" ry="24.401" style="stroke:#2C6FAC;stroke-width:0.5;"/><text fill="#1A1A1A" font-family="sans-serif" font-size="13" lengthAdjust="spacing" textLength="127.6006" x="356.3998" y="1372.8351">UC11 - Avaliar local</text><text fill="#1A1A1A" font-family="sans-serif" font-size="13" lengthAdjust="spacing" textLength="132.5327" x="353.9337" y="1387.9679">(nota + coment&#225;rio)</text></g><g id="elem_UC12"><ellipse cx="419.84" cy="1502.9764" fill="#EEF4FB" rx="93.34" ry="24.4764" style="stroke:#2C6FAC;stroke-width:0.5;"/><text fill="#1A1A1A" font-family="sans-serif" font-size="13" lengthAdjust="spacing" textLength="115.3115" x="359.1843" y="1498.6935">UC12 - Gerar rota</text><text fill="#1A1A1A" font-family="sans-serif" font-size="13" lengthAdjust="spacing" textLength="90.7588" x="371.4607" y="1513.8263">personalizada</text></g><g id="elem_UC13"><ellipse cx="419.7724" cy="1677.0545" fill="#EEF4FB" rx="118.2724" ry="26.0545" style="stroke:#2C6FAC;stroke-width:0.5;"/><text fill="#1A1A1A" font-family="sans-serif" font-size="13" lengthAdjust="spacing" textLength="160.7925" x="336.3762" y="1672.7715">UC13 - Selecionar modal</text><text fill="#1A1A1A" font-family="sans-serif" font-size="13" lengthAdjust="spacing" textLength="88.4482" x="372.5483" y="1687.9043">de transporte</text></g><g id="elem_UC14"><ellipse cx="419.973" cy="1912.1946" fill="#EEF4FB" rx="111.473" ry="24.6946" style="stroke:#2C6FAC;stroke-width:0.5;"/><text fill="#1A1A1A" font-family="sans-serif" font-size="13" lengthAdjust="spacing" textLength="141.4258" x="346.2601" y="1907.9116">UC14 - Visualizar rota</text><text fill="#1A1A1A" font-family="sans-serif" font-size="13" lengthAdjust="spacing" textLength="61.6421" x="386.1519" y="1923.0444">em mapa</text></g><g id="elem_UC15"><ellipse cx="420.2063" cy="1588.8413" fill="#EEF4FB" rx="119.7063" ry="26.3413" style="stroke:#2C6FAC;stroke-width:0.5;"/><text fill="#1A1A1A" font-family="sans-serif" font-size="13" lengthAdjust="spacing" textLength="164.7344" x="334.8391" y="1584.5583">UC15 - Ver roteiro pronto</text><text fill="#1A1A1A" font-family="sans-serif" font-size="13" lengthAdjust="spacing" textLength="98.4141" x="367.9992" y="1599.6911">(1, 2 ou 3 dias)</text></g><g id="elem_UC16"><ellipse cx="420.0995" cy="1247.8199" fill="#EEF4FB" rx="137.0995" ry="29.8199" style="stroke:#2C6FAC;stroke-width:0.5;"/><text fill="#1A1A1A" font-family="sans-serif" font-size="13" lengthAdjust="spacing" textLength="209.4282" x="315.3853" y="1242.754">UC16 - Receber recomenda&#231;&#245;es</text><text fill="#1A1A1A" font-family="sans-serif" font-size="13" lengthAdjust="spacing" textLength="160.7417" x="339.7286" y="1257.8868">personalizadas por perfil</text></g><g id="elem_UC17"><ellipse cx="420.0267" cy="1144.9233" fill="#EEF4FB" rx="84.0267" ry="24.4233" style="stroke:#2C6FAC;stroke-width:0.5;"/><text fill="#1A1A1A" font-family="sans-serif" font-size="13" lengthAdjust="spacing" textLength="102.4702" x="366.1824" y="1140.5472">UC17 - Explorar</text><text fill="#1A1A1A" font-family="sans-serif" font-size="13" lengthAdjust="spacing" textLength="84.4111" x="375.212" y="1155.68">hidden gems</text></g><g id="elem_UC18"><ellipse cx="420.2224" cy="907.0468" fill="#EEF4FB" rx="109.2224" ry="24.5468" style="stroke:#2C6FAC;stroke-width:0.5;"/><text fill="#1A1A1A" font-family="sans-serif" font-size="13" lengthAdjust="spacing" textLength="137.2046" x="348.6201" y="902.7639">UC18 - Ver locais por</text><text fill="#1A1A1A" font-family="sans-serif" font-size="13" lengthAdjust="spacing" textLength="99.29" x="367.5774" y="917.8967">custo-benef&#237;cio</text></g><g id="elem_UC19"><ellipse cx="419.9116" cy="987.8823" fill="#EEF4FB" rx="92.4116" ry="20.8823" style="stroke:#2C6FAC;stroke-width:0.5;"/><text fill="#1A1A1A" font-family="sans-serif" font-size="13" lengthAdjust="spacing" textLength="150.0269" x="344.8982" y="990.3828">UC19 - Salvar favoritos</text></g><g id="elem_UC20"><ellipse cx="419.8009" cy="1064.7602" fill="#EEF4FB" rx="89.3009" ry="20.2602" style="stroke:#2C6FAC;stroke-width:0.5;"/><text fill="#1A1A1A" font-family="sans-serif" font-size="13" lengthAdjust="spacing" textLength="143.1333" x="348.2343" y="1067.2607">UC20 - Salvar roteiros</text></g><g id="elem_UC21"><ellipse cx="420.1715" cy="2391.1343" fill="#EEF4FB" rx="111.1715" ry="24.6343" style="stroke:#2C6FAC;stroke-width:0.5;"/><text fill="#1A1A1A" font-family="sans-serif" font-size="13" lengthAdjust="spacing" textLength="140.5371" x="346.903" y="2386.8513">UC21 - Alterar idioma</text><text fill="#1A1A1A" font-family="sans-serif" font-size="13" lengthAdjust="spacing" textLength="78.3301" x="378.0065" y="2401.9842">da interface</text></g><g id="elem_UC22"><ellipse cx="419.8999" cy="2490.98" fill="#EEF4FB" rx="120.3999" ry="26.48" style="stroke:#2C6FAC;stroke-width:0.5;"/><text fill="#1A1A1A" font-family="sans-serif" font-size="13" lengthAdjust="spacing" textLength="166.626" x="333.5869" y="2486.697">UC22 - Traduzir conte&#250;do</text><text fill="#1A1A1A" font-family="sans-serif" font-size="13" lengthAdjust="spacing" textLength="115.7051" x="359.0473" y="2501.8298">automaticamente</text></g><g id="elem_UC23"><ellipse cx="420.1439" cy="2618.0288" fill="#EEF4FB" rx="113.1439" ry="25.0288" style="stroke:#2C6FAC;stroke-width:0.5;"/><text fill="#1A1A1A" font-family="sans-serif" font-size="13" lengthAdjust="spacing" textLength="146.3008" x="343.9935" y="2613.7458">UC23 - Cadastrar local</text><text fill="#1A1A1A" font-family="sans-serif" font-size="13" lengthAdjust="spacing" textLength="63.5654" x="385.3612" y="2628.8786">na cidade</text></g><g id="elem_UC24"><ellipse cx="419.9894" cy="2703.9979" fill="#EEF4FB" rx="115.4894" ry="25.4979" style="stroke:#2C6FAC;stroke-width:0.5;"/><text fill="#1A1A1A" font-family="sans-serif" font-size="13" lengthAdjust="spacing" textLength="153.0103" x="340.4842" y="2699.7149">UC24 - Gerenciar locais</text><text fill="#1A1A1A" font-family="sans-serif" font-size="13" lengthAdjust="spacing" textLength="63.5781" x="385.2003" y="2714.8477">da cidade</text></g><g id="elem_UC25"><ellipse cx="420.1439" cy="2966.0288" fill="#EEF4FB" rx="113.1439" ry="25.0288" style="stroke:#2C6FAC;stroke-width:0.5;"/><text fill="#1A1A1A" font-family="sans-serif" font-size="13" lengthAdjust="spacing" textLength="146.3008" x="343.9935" y="2961.7458">UC25 - Cadastrar local</text><text fill="#1A1A1A" font-family="sans-serif" font-size="13" lengthAdjust="spacing" textLength="39.6475" x="397.3202" y="2976.8786">global</text></g><g id="elem_UC26"><ellipse cx="419.9894" cy="2789.9979" fill="#EEF4FB" rx="115.4894" ry="25.4979" style="stroke:#2C6FAC;stroke-width:0.5;"/><text fill="#1A1A1A" font-family="sans-serif" font-size="13" lengthAdjust="spacing" textLength="153.0103" x="340.4842" y="2785.7149">UC26 - Gerenciar locais</text><text fill="#1A1A1A" font-family="sans-serif" font-size="13" lengthAdjust="spacing" textLength="46.4204" x="393.7792" y="2800.8477">globais</text></g><g id="elem_UC27"><ellipse cx="420.0561" cy="2877.8112" fill="#EEF4FB" rx="124.5561" ry="27.3112" style="stroke:#2C6FAC;stroke-width:0.5;"/><text fill="#1A1A1A" font-family="sans-serif" font-size="13" lengthAdjust="spacing" textLength="177.7725" x="328.1698" y="2873.5283">UC27 - Gerenciar curadoria</text><text fill="#1A1A1A" font-family="sans-serif" font-size="13" lengthAdjust="spacing" textLength="58.7729" x="387.6696" y="2888.6611">premium</text></g><!--entity T--><g id="elem_T"><ellipse cx="74.0132" cy="403" fill="#D6E8FA" rx="8" ry="8" style="stroke:#1A5C99;stroke-width:0.5;"/><path d="M74.0132,411 L74.0132,438 M61.0132,419 L87.0132,419 M74.0132,438 L61.0132,453 M74.0132,438 L87.0132,453 " fill="none" style="stroke:#1A5C99;stroke-width:0.5;"/><text fill="#1A1A1A" font-family="sans-serif" font-size="13" font-weight="bold" lengthAdjust="spacing" textLength="61.0264" x="43.5" y="466.5669">Traveler</text></g><!--entity CA--><g id="elem_CA"><ellipse cx="74.2415" cy="2580" fill="#D6E8FA" rx="8" ry="8" style="stroke:#1A5C99;stroke-width:0.5;"/><path d="M74.2415,2588 L74.2415,2615 M61.2415,2596 L87.2415,2596 M74.2415,2615 L61.2415,2630 M74.2415,2615 L87.2415,2630 " fill="none" style="stroke:#1A5C99;stroke-width:0.5;"/><text fill="#1A1A1A" font-family="sans-serif" font-size="13" font-weight="bold" lengthAdjust="spacing" textLength="102.4829" x="23" y="2643.5669">City Authority</text></g><!--entity DEV--><g id="elem_DEV"><ellipse cx="73.9099" cy="2761" fill="#D6E8FA" rx="8" ry="8" style="stroke:#1A5C99;stroke-width:0.5;"/><path d="M73.9099,2769 L73.9099,2796 M60.9099,2777 L86.9099,2777 M73.9099,2796 L60.9099,2811 M73.9099,2796 L86.9099,2811 " fill="none" style="stroke:#1A5C99;stroke-width:0.5;"/><text fill="#1A1A1A" font-family="sans-serif" font-size="13" font-weight="bold" lengthAdjust="spacing" textLength="74.8198" x="36.5" y="2824.5669">Developer</text></g><!--entity MapAPI--><g id="elem_MapAPI"><ellipse cx="74.0625" cy="1535" fill="#D6E8FA" rx="8" ry="8" style="stroke:#1A5C99;stroke-width:0.5;"/><path d="M74.0625,1543 L74.0625,1570 M61.0625,1551 L87.0625,1551 M74.0625,1570 L61.0625,1585 M74.0625,1570 L87.0625,1585 " fill="none" style="stroke:#1A5C99;stroke-width:0.5;"/><text fill="#1A1A1A" font-family="sans-serif" font-size="13" font-weight="bold" lengthAdjust="spacing" textLength="99.125" x="24.5" y="1598.5669">API de Mapas</text></g><!--entity TransAPI--><g id="elem_TransAPI"><ellipse cx="73.8108" cy="2462" fill="#D6E8FA" rx="8" ry="8" style="stroke:#1A5C99;stroke-width:0.5;"/><path d="M73.8108,2470 L73.8108,2497 M60.8108,2478 L86.8108,2478 M73.8108,2497 L60.8108,2512 M73.8108,2497 L86.8108,2512 " fill="none" style="stroke:#1A5C99;stroke-width:0.5;"/><text fill="#1A1A1A" font-family="sans-serif" font-size="13" font-weight="bold" lengthAdjust="spacing" textLength="119.6216" x="14" y="2525.5669">API de Tradu&#231;&#227;o</text></g><!--entity LocAPI--><g id="elem_LocAPI"><ellipse cx="73.9771" cy="14" fill="#D6E8FA" rx="8" ry="8" style="stroke:#1A5C99;stroke-width:0.5;"/><path d="M73.9771,22 L73.9771,49 M60.9771,30 L86.9771,30 M73.9771,49 L60.9771,64 M73.9771,49 L86.9771,64 " fill="none" style="stroke:#1A5C99;stroke-width:0.5;"/><text fill="#1A1A1A" font-family="sans-serif" font-size="13" font-weight="bold" lengthAdjust="spacing" textLength="135.9541" x="6" y="77.5669">API de Localiza&#231;&#227;o</text></g><g id="elem_GMN82"><path d="M656.5,1467.5 L656.5,1499 L513.94,1503 L656.5,1507 L656.5,1538.0313 A0,0 0 0 0 656.5,1538.0313 L864.9019,1538.0313 A0,0 0 0 0 864.9019,1538.0313 L864.9019,1477.5 L854.9019,1467.5 L656.5,1467.5 A0,0 0 0 0 656.5,1467.5 " fill="#FFFDE7" style="stroke:#F9A825;stroke-width:0.5;"/><path d="M854.9019,1467.5 L854.9019,1477.5 L864.9019,1477.5 L854.9019,1467.5 " fill="#FFFDE7" style="stroke:#F9A825;stroke-width:0.5;"/><text fill="#000000" font-family="sans-serif" font-size="13" lengthAdjust="spacing" textLength="185.5737" x="662.5" y="1484.5669">Considera tempo dispon&#237;vel,</text><text fill="#000000" font-family="sans-serif" font-size="13" lengthAdjust="spacing" textLength="187.4019" x="662.5" y="1499.6997">localiza&#231;&#227;o atual, or&#231;amento</text><text fill="#000000" font-family="sans-serif" font-size="13" lengthAdjust="spacing" textLength="145.1582" x="662.5" y="1514.8325">e modal de transporte</text><text fill="#000000" font-family="sans-serif" font-size="13" lengthAdjust="spacing" textLength="125.8296" x="662.5" y="1529.9653">(RF08, RF10, RF11)</text></g><g id="elem_GMN85"><path d="M659,1220.5 L659,1244 L557.22,1248 L659,1252 L659,1275.8984 A0,0 0 0 0 659,1275.8984 L861.8032,1275.8984 A0,0 0 0 0 861.8032,1275.8984 L861.8032,1230.5 L851.8032,1220.5 L659,1220.5 A0,0 0 0 0 659,1220.5 " fill="#FFFDE7" style="stroke:#F9A825;stroke-width:0.5;"/><path d="M851.8032,1220.5 L851.8032,1230.5 L861.8032,1230.5 L851.8032,1220.5 " fill="#FFFDE7" style="stroke:#F9A825;stroke-width:0.5;"/><text fill="#000000" font-family="sans-serif" font-size="13" lengthAdjust="spacing" textLength="181.8032" x="665" y="1237.5669">Baseado em TravelPersona:</text><text fill="#000000" font-family="sans-serif" font-size="13" lengthAdjust="spacing" textLength="157.4219" x="665" y="1252.6997">Adventurer, Practical ou</text><text fill="#000000" font-family="sans-serif" font-size="13" lengthAdjust="spacing" textLength="130.5269" x="665" y="1267.8325">International (RF14)</text></g><g id="elem_GMN88"><path d="M644,2094.5 L644,2118 L534.19,2122 L644,2126 L644,2149.8984 A0,0 0 0 0 644,2149.8984 L876.834,2149.8984 A0,0 0 0 0 876.834,2149.8984 L876.834,2104.5 L866.834,2094.5 L644,2094.5 A0,0 0 0 0 644,2094.5 " fill="#FFFDE7" style="stroke:#F9A825;stroke-width:0.5;"/><path d="M866.834,2094.5 L866.834,2104.5 L876.834,2104.5 L866.834,2094.5 " fill="#FFFDE7" style="stroke:#F9A825;stroke-width:0.5;"/><text fill="#000000" font-family="sans-serif" font-size="13" lengthAdjust="spacing" textLength="211.834" x="650" y="2111.5669">Define TravelPersona do usu&#225;rio</text><text fill="#000000" font-family="sans-serif" font-size="13" lengthAdjust="spacing" textLength="173.875" x="650" y="2126.6997">usada nas recomenda&#231;&#245;es</text><text fill="#000000" font-family="sans-serif" font-size="13" lengthAdjust="spacing" textLength="139.3501" x="650" y="2141.8325">e gera&#231;&#227;o de roteiros</text></g><g id="elem_GMN91"><path d="M344,21.5 L344,76.8984 L495.5522,76.8984 L495.5522,31.5 L485.5522,21.5 L344,21.5 " fill="#FFFDE7" style="stroke:#F9A825;stroke-width:0.5;"/><path d="M485.5522,21.5 L485.5522,31.5 L495.5522,31.5 L485.5522,21.5 " fill="#FFFDE7" style="stroke:#F9A825;stroke-width:1.0;"/><text fill="#000000" font-family="sans-serif" font-size="13" lengthAdjust="spacing" textLength="117.1333" x="350" y="38.5669">Inclui SafetyInfo e</text><text fill="#000000" font-family="sans-serif" font-size="13" lengthAdjust="spacing" textLength="130.5522" x="350" y="53.6997">CulturalInfo do local</text><text fill="#000000" font-family="sans-serif" font-size="13" lengthAdjust="spacing" textLength="84.5127" x="350" y="68.8325">(RF18, RF22)</text></g><g id="elem_GMN94"><path d="M313,111.5 L313,166.8984 L526.8672,166.8984 L526.8672,121.5 L516.8672,111.5 L313,111.5 " fill="#FFFDE7" style="stroke:#F9A825;stroke-width:0.5;"/><path d="M516.8672,111.5 L516.8672,121.5 L526.8672,121.5 L516.8672,111.5 " fill="#FFFDE7" style="stroke:#F9A825;stroke-width:1.0;"/><text fill="#000000" font-family="sans-serif" font-size="13" lengthAdjust="spacing" textLength="176.249" x="319" y="128.5669">Curadoria especializada de</text><text fill="#000000" font-family="sans-serif" font-size="13" lengthAdjust="spacing" textLength="192.8672" x="319" y="143.6997">experi&#234;ncias premium (RF23)</text><text fill="#000000" font-family="sans-serif" font-size="13" lengthAdjust="spacing" textLength="169.1841" x="319" y="158.8325">&#8212; exclusivo do Developer</text></g><!--link T to UC01--><g id="link_T_UC01"><path d="M76.3,469.78 C83.13,661.31 116.63,1519.84 172,1624 C186.69,1651.64 213.21,1639.9 227,1668 C239.16,1692.79 217.22,2143.87 235,2165 C261.48,2196.48 306.72,2205.39 345.71,2206.36 " fill="none" id="T-UC01" style="stroke:#4A4A4A;stroke-width:1.0;"/></g><!--link T to UC02--><g id="link_T_UC02"><path d="M76.18,469.76 C82.08,650.76 110.69,1430.51 172,1665 C186.74,1721.37 213.98,1727.21 227,1784 C229.81,1796.24 226.93,2226.38 235,2236 C260.3,2266.18 302.79,2275.88 340.57,2277.71 " fill="none" id="T-UC02" style="stroke:#4A4A4A;stroke-width:1.0;"/></g><!--link T to UC03--><g id="link_T_UC03"><path d="M92.82,469.64 C110.15,503.95 138.68,554.95 172,593 C192.62,616.55 213.35,608.83 227,637 C242.94,669.9 215.14,1922.31 235,1953 C257.51,1987.79 298.36,2008.35 335.86,2020.42 " fill="none" id="T-UC03" style="stroke:#4A4A4A;stroke-width:1.0;"/></g><!--link T to UC04--><g id="link_T_UC04"><path d="M75.64,469.54 C78.96,640.25 97.04,1343.89 172,1549 C186.56,1588.84 213.82,1586.68 227,1627 C234.82,1650.93 219.13,2060.46 235,2080 C252.66,2101.75 279.05,2113.65 306.36,2119.87 " fill="none" id="T-UC04" style="stroke:#4A4A4A;stroke-width:1.0;"/></g><!--link T to UC05--><g id="link_T_UC05"><path d="M74.44,394.37 C75.77,329.08 89.13,196.05 172,136 C191.79,121.66 208.35,120.2 227,136 C243.5,149.98 222.89,166.08 235,184 C261.29,222.88 306.02,250.56 344.8,268.67 " fill="none" id="T-UC05" style="stroke:#4A4A4A;stroke-width:1.0;"/></g><!--link T to UC06--><g id="link_T_UC06"><path d="M76.1,394.14 C80.13,334.19 97.71,218.92 172,167 C192.04,153 209.34,150.1 227,167 C241.55,180.92 222.7,332.06 235,348 C254.41,373.15 284.75,387.48 315.24,395.57 " fill="none" id="T-UC06" style="stroke:#4A4A4A;stroke-width:1.0;"/></g><!--link T to UC07--><g id="link_T_UC07"><path d="M84.17,394.26 C105.08,314.83 159.69,142.9 227,208 C246.1,226.47 218.14,426.46 235,447 C254.67,470.96 284.89,483.09 315.19,488.86 " fill="none" id="T-UC07" style="stroke:#4A4A4A;stroke-width:1.0;"/></g><!--link T to UC11--><g id="link_T_UC11"><path d="M104.53,426.27 C139.59,421.38 197.08,419.77 227,454 C242.36,471.57 222.29,1274.43 235,1294 C258.14,1329.63 300.52,1350.35 338.77,1362.29 " fill="none" id="T-UC11" style="stroke:#4A4A4A;stroke-width:1.0;"/></g><!--link T to UC12--><g id="link_T_UC12"><path d="M104.8,434.78 C140.7,439.91 199.61,454.38 227,495 C241.35,516.28 221.03,1397.47 235,1419 C259.08,1456.12 304.03,1477.05 343.48,1488.73 " fill="none" id="T-UC12" style="stroke:#4A4A4A;stroke-width:1.0;"/></g><!--link T to UC13--><g id="link_T_UC13"><path d="M102.14,469.72 C120.6,494.28 146.27,526.4 172,552 C194.19,574.08 213.33,567.84 227,596 C239.58,621.91 217.07,1610.45 235,1633 C251.76,1654.08 276.67,1666.17 302.78,1672.87 " fill="none" id="T-UC13" style="stroke:#4A4A4A;stroke-width:1.0;"/></g><!--link T to UC15--><g id="link_T_UC15"><path d="M104.74,450.26 C147.03,476.53 220.2,523.23 227,536 C240.17,560.74 217.55,1523.07 235,1545 C251.56,1565.82 276.07,1577.87 301.82,1584.62 " fill="none" id="T-UC15" style="stroke:#4A4A4A;stroke-width:1.0;"/></g><!--link T to UC16--><g id="link_T_UC16"><path d="M104.67,415.95 C139.05,399.79 195.06,381.38 227,413 C242.28,428.12 222.32,1169.63 235,1187 C251.27,1209.29 275.99,1223.56 302.09,1232.66 " fill="none" id="T-UC16" style="stroke:#4A4A4A;stroke-width:1.0;"/></g><!--link T to UC17--><g id="link_T_UC17"><path d="M104.52,403.72 C138.24,374.8 193.11,338.48 227,372 C241.44,386.28 222.25,1087.19 235,1103 C259.07,1132.84 299.57,1144.18 336.45,1147.69 " fill="none" id="T-UC17" style="stroke:#4A4A4A;stroke-width:1.0;"/></g><!--link T to UC18--><g id="link_T_UC18"><path d="M87.68,394.3 C112.52,325.81 170.17,192.96 227,249 C238.35,260.2 226.28,809.65 235,823 C257.93,858.14 299.55,878.78 337.41,890.8 " fill="none" id="T-UC18" style="stroke:#4A4A4A;stroke-width:1.0;"/></g><!--link T to UC19--><g id="link_T_UC19"><path d="M92.62,394.46 C121.26,338.11 179.47,243.05 227,290 C240.02,302.87 223.39,934.85 235,949 C257.47,976.39 293.95,987.57 328.52,991.36 " fill="none" id="T-UC19" style="stroke:#4A4A4A;stroke-width:1.0;"/></g><!--link T to UC20--><g id="link_T_UC20"><path d="M100.84,394.14 C132.95,351.45 188.24,292.69 227,331 C240.73,344.57 222.76,1011.07 235,1026 C258.19,1054.28 296.3,1065.28 331.85,1068.71 " fill="none" id="T-UC20" style="stroke:#4A4A4A;stroke-width:1.0;"/></g><!--link T to UC21--><g id="link_T_UC21"><path d="M77.13,469.83 C89.2,682.74 149.22,1724.16 172,1788 C186.26,1827.95 213.81,1825.68 227,1866 C234.62,1889.29 221.56,2286.51 235,2307 C257.91,2341.95 299.28,2362.55 337,2374.6 " fill="none" id="T-UC21" style="stroke:#4A4A4A;stroke-width:1.0;"/></g><!--link CA to UC01--><g id="link_CA_UC01"><path d="M124.72,2571.18 C131.66,2563.62 137.83,2555.16 142,2546 C178.65,2465.44 108.25,1811.39 172,1750 C189.61,1733.04 209.55,1732.88 227,1750 C243.46,1766.15 220.13,2147.38 235,2165 C261.53,2196.43 306.77,2205.35 345.75,2206.32 " fill="none" id="CA-UC01" style="stroke:#4A4A4A;stroke-width:1.0;"/></g><!--link CA to UC02--><g id="link_CA_UC02"><path d="M124.67,2571.16 C131.61,2563.6 137.8,2555.14 142,2546 C173.23,2477.97 117.91,1924.74 172,1873 C189.67,1856.1 209.53,1855.91 227,1873 C241.42,1887.11 222.01,2220.57 235,2236 C260.37,2266.13 302.86,2275.82 340.62,2277.66 " fill="none" id="CA-UC02" style="stroke:#4A4A4A;stroke-width:1.0;"/></g><!--link CA to UC23--><g id="link_CA_UC23"><path d="M125.02,2610.31 C172.63,2611.55 245.93,2613.47 307.43,2615.08 " fill="none" id="CA-UC23" style="stroke:#4A4A4A;stroke-width:1.0;"/></g><!--link CA to UC24--><g id="link_CA_UC24"><path d="M125.11,2626.49 C156.48,2637.14 197.86,2650.65 235,2661 C268.02,2670.21 304.74,2679.06 336.64,2686.32 " fill="none" id="CA-UC24" style="stroke:#4A4A4A;stroke-width:1.0;"/></g><!--link DEV to UC01--><g id="link_DEV_UC01"><path d="M100.77,2752.45 C115.81,2728.34 133.46,2695.7 142,2664 C153.54,2621.16 140.05,1896.78 172,1866 C189.61,1849.04 209.49,1848.95 227,1866 C238.91,1877.59 224.23,2152.34 235,2165 C261.65,2196.33 306.89,2205.25 345.84,2206.25 " fill="none" id="DEV-UC01" style="stroke:#4A4A4A;stroke-width:1.0;"/></g><!--link DEV to UC02--><g id="link_DEV_UC02"><path d="M97.58,2752.36 C111.66,2727.81 129.43,2694.73 142,2664 C197.11,2529.29 138.06,2458.57 235,2350 C266.31,2314.93 316.03,2295.13 355.89,2284.27 " fill="none" id="DEV-UC02" style="stroke:#4A4A4A;stroke-width:1.0;"/></g><!--link DEV to UC25--><g id="link_DEV_UC25"><path d="M110.23,2827.72 C140.51,2857.91 186.81,2899.03 235,2923 C262.61,2936.73 294.75,2946.18 324.38,2952.63 " fill="none" id="DEV-UC25" style="stroke:#4A4A4A;stroke-width:1.0;"/></g><!--link DEV to UC26--><g id="link_DEV_UC26"><path d="M111.81,2790 C157.49,2790 237.51,2790 304.43,2790 " fill="none" id="DEV-UC26" style="stroke:#4A4A4A;stroke-width:1.0;"/></g><!--link DEV to UC27--><g id="link_DEV_UC27"><path d="M111.8,2800.14 C144.19,2809.01 192.65,2822.13 235,2833 C267.49,2841.34 303.3,2850.18 334.63,2857.79 " fill="none" id="DEV-UC27" style="stroke:#4A4A4A;stroke-width:1.0;"/></g><!--link UC06 to UC05--><g id="link_UC06_UC05"><path d="M420,379.99 C420,365.54 420,353.12 420,337.22 " fill="none" id="UC06-to-UC05" style="stroke:#4A4A4A;stroke-width:1.0;stroke-dasharray:7.0,7.0;"/><polygon fill="#4A4A4A" points="420,331.22,416,340.22,420,336.22,424,340.22,420,331.22" style="stroke:#4A4A4A;stroke-width:1.0;"/><text fill="#000000" font-family="sans-serif" font-size="11" lengthAdjust="spacing" textLength="51.772" x="384.5" y="359.7104">&#171;extend&#187;</text></g><!--link UC08 to UC07--><g id="link_UC08_UC07"><path d="M420,563.46 C420,548.3 420,535.42 420,520.6 " fill="none" id="UC08-to-UC07" style="stroke:#4A4A4A;stroke-width:1.0;stroke-dasharray:7.0,7.0;"/><polygon fill="#4A4A4A" points="420,514.6,416,523.6,420,519.6,424,523.6,420,514.6" style="stroke:#4A4A4A;stroke-width:1.0;"/><text fill="#000000" font-family="sans-serif" font-size="11" lengthAdjust="spacing" textLength="53.3135" x="383.5" y="543.2104">&#171;include&#187;</text></g><!--link UC09 to UC07--><g id="link_UC09_UC07"><path d="M328.55,691.49 C285.57,692.74 237.43,685.1 208,652 C196.74,639.33 176.74,604.76 235,546 C258.86,521.93 286.8618,509.5654 319.0818,501.6854 " fill="none" id="UC09-to-UC07" style="stroke:#4A4A4A;stroke-width:1.0;stroke-dasharray:7.0,7.0;"/><polygon fill="#4A4A4A" points="324.91,500.26,315.2174,498.5126,320.0531,501.4478,317.1179,506.2836,324.91,500.26" style="stroke:#4A4A4A;stroke-width:1.0;"/><text fill="#000000" font-family="sans-serif" font-size="11" lengthAdjust="spacing" textLength="53.3135" x="173" y="649.2104">&#171;include&#187;</text></g><!--link UC10 to UC07--><g id="link_UC10_UC07"><path d="M305.46,760.38 C279,752.46 253.29,739.62 235,719 C180.74,657.82 156.82,600.77 208,537 C233.78,504.88 270.2099,492.3008 310.3299,487.6508 " fill="none" id="UC10-to-UC07" style="stroke:#4A4A4A;stroke-width:1.0;stroke-dasharray:7.0,7.0;"/><polygon fill="#4A4A4A" points="316.29,486.96,306.8893,484.0228,311.3232,487.5357,307.8104,491.9696,316.29,486.96" style="stroke:#4A4A4A;stroke-width:1.0;"/><text fill="#000000" font-family="sans-serif" font-size="11" lengthAdjust="spacing" textLength="53.3135" x="173" y="548.2104">&#171;include&#187;</text></g><!--link UC13 to UC12--><g id="link_UC13_UC12"><path d="M306.51,1669.36 C280.35,1662.71 254.51,1651.53 235,1633 C199.74,1599.53 175.61,1563.26 208,1527 C240.94,1490.12 291.1992,1484.7006 337.4792,1488.4106 " fill="none" id="UC13-to-UC12" style="stroke:#4A4A4A;stroke-width:1.0;stroke-dasharray:7.0,7.0;"/><polygon fill="#4A4A4A" points="343.46,1488.89,334.8084,1484.1836,338.476,1488.4905,334.1691,1492.158,343.46,1488.89" style="stroke:#4A4A4A;stroke-width:1.0;"/><text fill="#000000" font-family="sans-serif" font-size="11" lengthAdjust="spacing" textLength="53.3135" x="173" y="1538.2104">&#171;include&#187;</text></g><!--link UC14 to UC12--><g id="link_UC14_UC12"><path d="M331.3,1926.86 C287.66,1928.73 238.1,1921.7 208,1888 C157.07,1830.98 184.89,1602.75 235,1545 C257.67,1518.88 286.9197,1507.9643 320.5497,1503.1843 " fill="none" id="UC14-to-UC12" style="stroke:#4A4A4A;stroke-width:1.0;stroke-dasharray:7.0,7.0;"/><polygon fill="#4A4A4A" points="326.49,1502.34,317.0167,1499.6463,321.5398,1503.0436,318.1424,1507.5667,326.49,1502.34" style="stroke:#4A4A4A;stroke-width:1.0;"/><text fill="#000000" font-family="sans-serif" font-size="11" lengthAdjust="spacing" textLength="53.3135" x="173" y="1885.2104">&#171;include&#187;</text></g><!--link UC17 to UC16--><g id="link_UC17_UC16"><path d="M420,1169.73 C420,1184.21 420,1196.61 420,1211.93 " fill="none" id="UC17-to-UC16" style="stroke:#4A4A4A;stroke-width:1.0;stroke-dasharray:7.0,7.0;"/><polygon fill="#4A4A4A" points="420,1217.93,424,1208.93,420,1212.93,416,1208.93,420,1217.93" style="stroke:#4A4A4A;stroke-width:1.0;"/><text fill="#000000" font-family="sans-serif" font-size="11" lengthAdjust="spacing" textLength="51.772" x="384.5" y="1197.9604">&#171;extend&#187;</text></g><!--link UC18 to UC16--><g id="link_UC18_UC16"><path d="M311.92,910.94 C283.65,917.03 255.41,928.42 235,949 C196.88,987.44 214.81,1014.18 209,1068 C203.19,1121.82 198.2,1147.3 235,1187 C254.31,1207.83 275.1817,1219.6512 302.1517,1228.7012 " fill="none" id="UC18-to-UC16" style="stroke:#4A4A4A;stroke-width:1.0;stroke-dasharray:7.0,7.0;"/><polygon fill="#4A4A4A" points="307.84,1230.61,300.5801,1223.9547,303.0998,1229.0194,298.0351,1231.5391,307.84,1230.61" style="stroke:#4A4A4A;stroke-width:1.0;"/><text fill="#000000" font-family="sans-serif" font-size="11" lengthAdjust="spacing" textLength="51.772" x="174" y="1079.2104">&#171;extend&#187;</text></g><!--link UC22 to UC21--><g id="link_UC22_UC21"><path d="M420,2464.46 C420,2449.3 420,2436.42 420,2421.6 " fill="none" id="UC22-to-UC21" style="stroke:#4A4A4A;stroke-width:1.0;stroke-dasharray:7.0,7.0;"/><polygon fill="#4A4A4A" points="420,2415.6,416,2424.6,420,2420.6,424,2424.6,420,2415.6" style="stroke:#4A4A4A;stroke-width:1.0;"/><text fill="#000000" font-family="sans-serif" font-size="11" lengthAdjust="spacing" textLength="53.3135" x="383.5" y="2444.2104">&#171;include&#187;</text></g><!--link MapAPI to UC14--><g id="link_MapAPI_UC14"><path d="M123.64,1599.07 C156.33,1624.62 198.48,1661.71 227,1702 C232.29,1709.48 229.96,1713.35 235,1721 C279.84,1789.05 350.64,1854.31 390.06,1888.1 " fill="none" id="MapAPI-UC14" style="stroke:#4A4A4A;stroke-width:1.0;"/></g><!--link LocAPI to UC05--><g id="link_LocAPI_UC05"><path d="M142.14,24.6 C171.81,20.74 204.91,23 227,44 C238.29,54.74 226.98,170.64 235,184 C258.96,223.92 303.13,251.5 342.19,269.3 " fill="none" id="LocAPI-UC05" style="stroke:#4A4A4A;stroke-width:1.0;"/></g><!--link LocAPI to UC12--><g id="link_LocAPI_UC12"><path d="M94.22,80.52 C128.9,150.53 200.77,306.78 227,448 C231.93,474.52 220.32,1396.37 235,1419 C259.08,1456.12 304.03,1477.05 343.47,1488.73 " fill="none" id="LocAPI-UC12" style="stroke:#4A4A4A;stroke-width:1.0;"/></g><!--link TransAPI to UC22--><g id="link_TransAPI_UC22"><path d="M134.14,2491 C179.47,2491 243.54,2491 299.43,2491 " fill="none" id="TransAPI-UC22" style="stroke:#4A4A4A;stroke-width:1.0;"/></g><!--link UC10 to GMN91--><g id="link_UC10_GMN91"><path d="M300.81,765.47 C257.89,756.5 213.84,738.12 188.5,701.5 C151.19,647.6 151.19,165.4 188.5,111.5 C222.26,62.72 290.17,48.88 343.74,46.2 " fill="none" id="UC10-GMN91" style="stroke:#4A4A4A;stroke-width:1.0;stroke-dasharray:7.0,7.0;"/></g><!--link UC27 to GMN94--><g id="link_UC27_GMN94"><path d="M296.01,2875.32 C254.53,2867.51 212.73,2850.5 188.5,2815.5 C148.14,2757.19 152.02,323.31 188.5,262.5 C216.74,215.43 269.68,185.31 317.82,166.61 " fill="none" id="UC27-GMN94" style="stroke:#4A4A4A;stroke-width:1.0;stroke-dasharray:7.0,7.0;"/></g><!--SRC=[hLXVQrit57_tfn3PGngMhjQrOoUbAzmukQMmbP1aVSgBVA_iY5vBdgJhfHc5VO2MTQEmnr4s20poE1XzzJVf5zW-mewaA_bFv6mETI38Edzqpj7l_94tqPVhV1gRg2VuW0qhIQPNqp-fGXEcAi8KKDRJf5umFYQIZ52Vv2-6KbIyw8bIIFHPbfg_EOvAqPmeYhvl8FZiB_CV7cRjRD_HX2oehFUJNYTBUtO_4rpNkpWrVs7tX5rIX5kDLtFdaLm3vuhJ3Zg7krbwypISxlJszlxdQU6xVbbIr1TbiM20fBacV5YkT3bhPjqikzLbjtzwpl8Nd2g5aYKZsZ4ZRbZV0gyMOoEb-Ausg-Pgf-PlIJrUaE92h_ObomuEkpTzoVRItMG7r3HAEj182oJPy5oZWfdmCC4RQuDk4wLmitHzj3f4d4eoeIMLY2XqMkzjz9X-YT9Admi9gmr3wwKryO02lnWxYOF3vrucFNgA2eg-9cEYh0IiO6-93CSL5QJPRyBom5UkRd9z9N9IiaioOuGTmtQ7w9mmfUc8h2qvm-l6Fx- -VeEUL8oWqqfEhvLckK07RCWqAJS00lQUDz5z-9YeKGuCpdP4qH6L0rPQekKR0rR8q6hzwVTLx1iriCp7LugDRtfDZEwZZ5n2y4inPDo6ncn7cPDvPb5fpvr4kLl0dUhAnbsYiJNZZ5CqbdH0vVGFdhFwOWrpL4KRL1pG0UFCAb22apCErpbXuF38oxeaVRKGjVrAvGIyFxnWVUP24GlOkpSHpbMnsW5hZgZwjcAAc13aKDBF-1XWniM8RgESQ3e4W8EDehBqHSWP5L757HDNLcgvf1OYDRqI29G5rLvH9wge2ugUm_KK581qJa5D8PmXNguRbTkjvPGckbB82vtnUwHFfHOF1ZG_9uNOycfseshsQZLa0fxNlS_SU0xXuNhwNZ8HBdmlfW4tQmsC3uGS1HLZENrlCBrWcgAcm_Bf5O7GLwM6Bzu-t8n08lLMHR7myVhjFCSA362JBuvD1aEWRXFq-RoNmGuSiUCOoZoJ7XbHMFxouU-_VbncfEWPLDRXxVQP57r23P0aM0MHSrbZW5XuyE1elcAJhoTGkNFe6Y0_4eNn3h9DcveAUDJKAuXcApRP-jnCEYxZdG5qX4PGmRraEogvKr-xj1uB03wqI06XnTieCVXlGKCZAeHr9nBMevcdFbx7rDv9SKkaVtx_tuAhOctI5ZXftrW-9-4WEnzuXMmwrvNO-H3DO6mo-F1Y3BsTo3D-peg2SWIrpkSDZYOmzWdigeSvxOpdbTBYVfzoEfXUmwLw3T7SnIPtJqWvWOiRa8bfqo5NSJHNa-PCehutBv34qkyfrrHoOj5Lteh-rs_Zp2lk8R4vMMgBUbOmCJ9DWa0DWQq1oJrgasXJIqp6s27Y4ffC3hYZqmy5O8zK6ZIPgcFIEYX98guzeKeRP-f10ouWsckkRZAkSidaOiy09_G4I4LEKCuAKWHReccOj5q9eAQ_plf9iImSpSHa9tRmi1Jzq4AIQ0zBEj5JhIGBk8XYFkakYEPGnmlNHQ7_ZLZb-tpIzQ5_TPUnxPYM3a_cEeL27tzu5sRLjTMTmWsxESclah1gXLKxh7R2gXDMNR_2GGiEMd3GWeCi3h9u9hiRLdj-1UddL_XJHMfnW5zRQIyD0GlB92m1o67P_bGMXsV5slhW3HAidQsJsHfIOBRkpAsxTp6UyRoie28yGFG2PlTYRHLsWlpYiSKPUeWUFN9w7ZzksD7EKRgMKf_bI7ihIJ27hIIr70acZHkazcfIjoPrbWt4kwieK9aj1UhxehfF111u_YaRScWqwpzstMEqJhrsmpqdGxRFVpL9NRzAQvWaTt7X6OnJnjvn2Ir9iyaTRBO_CBZV1yJ03u8zmHKhe7aYUDMEeJSncFNuz1goPnl82yyOHCnxRXi92LEt3ILmK3SgeeL94VRl7MVDtMrqdE6c_O-t6d2rzbUEnarJJ6lOXuu0jH_1pEWgSpsQFGHQMapWl4fIkOsE9Bpk8GebZ8P0geS5ROS5SonkttQKVI_QLoLTFCOyBYfLsGc-OLeKz444s5WUxgpFGohhc83VVlvPFhKlD0mHjOTDQog0cC7ODA3wvLDuv20JgPvxlPHsmxzmN0InZM2IRDscsdR6dk-RYAen3F7rw0dc6Nile12o-isDwhvgz2UjBI2RTA0NO9fY4sl1h7Y6O_y5]--></g></svg>